<svg version="1.1" id="logo-desjardins-noir" xmlns="http://www.w3.org/2000/svg" x="0" y="0" width="144" height="31" xml:space="preserve"><path id="logo_desjardins" d="M41.9 6.9H36v17.2h6c5.4 0 9-3.3 9-8.6-.1-5.1-3.7-8.6-9.1-8.6zm-.1 14.3h-2.2V9.9H42c3.2 0 5.4 2.4 5.4 5.8 0 3.2-2.3 5.5-5.6 5.5zM0 7.8v15.5L13.5 31 27 23.2V7.8L13.5 0 0 7.8zm23.2 2.1v11.2l-9.8 5.7-9.8-5.7V9.9l9.8-5.7 9.8 5.7zm96.6-1.5c0 1.1-.8 1.9-1.8 1.9-1.1 0-1.8-.8-1.8-1.9s.8-1.9 1.8-1.9c1 .2 1.8 1 1.8 1.9zm-.4 3.9h-3.1v11.8h3.101V12.3zm-48.7 4.4c-1.4-.5-1.8-.8-1.8-1.3 0-.6.5-.8 1.2-.8 1.2 0 2 .7 2.8 1.4l1.8-1.9c-1.2-1.3-2.8-2-4.6-2-2.5 0-4.2 1.5-4.2 3.5 0 2.4 1.8 3.3 3.7 3.9.2.1.5.1.6.2 1.1.399 1.6.5 1.6 1.2 0 .399-.2.899-1.5.899-1.2 0-2.2-.6-3-1.5l-1.8 1.9c1.3 1.399 2.7 2 4.7 2 2.8 0 4.6-1.4 4.6-3.5 0-2.199-1.5-2.899-4.1-3.999zm69.2 0c-1.4-.5-1.801-.8-1.801-1.3 0-.6.5-.8 1.2-.8 1.2 0 2 .7 2.8 1.4l1.801-1.9c-1.2-1.3-2.801-2-4.601-2-2.5 0-4.2 1.5-4.2 3.5 0 2.4 1.801 3.3 3.7 3.9.2.1.5.1.601.2 1.1.399 1.6.5 1.6 1.2 0 .399-.2.899-1.5.899-1.2 0-2.2-.6-3-1.5l-1.8 1.9c1.3 1.399 2.7 2 4.7 2 2.8 0 4.6-1.4 4.6-3.5 0-2.199-1.5-2.899-4.1-3.999zM80.4 8.4c0 1.1-.801 1.9-1.801 1.9-1.1 0-1.8-.8-1.8-1.9s.8-1.9 1.8-1.9c1.001.2 1.801 1 1.801 1.9zm-3.7 20.3c2 0 3.399-1.4 3.399-4.101V12.3H77v12c0 1.101-.5 1.601-1.2 1.601-.399 0-.7-.101-1.1-.4l-.6 2.599c.9.4 1.6.6 2.6.6zM90.1 13c-.8-.6-1.899-.8-3.199-.8-1.9 0-3.5.7-4.5 2 .199.2 1.5 1.6 1.8 2 .5-.7.899-1.1 1.6-1.3.2-.2.601-.2.8-.2.4 0 .801.1 1.101.2.7.4 1.2.9 1.2 1.6v.7c-.101 0-1.101-.5-2.601-.5-2.5 0-4.399 1.6-4.399 3.8s1.6 3.7 3.899 3.7c1.4 0 2.2-.601 3-1.3h.099V24h3v-7.7c-.1-1.4-.7-2.6-1.8-3.3zm-1.2 7.2c0 .6-1.301 1.6-2.7 1.6-.9 0-1.5-.6-1.5-1.399 0-.5.2-1.4 1.8-1.4 1.2 0 2.4.4 2.4.4v.799zm8.6-6.5l-.1-1.4h-3.2v11.8h3.2v-5.3c0-2.1 1.1-3.5 3.8-3.5v-3.1c-1.7 0-2.9.4-3.7 1.5zm13.2 9.4l.1 1.101h3V6.9h-3.1v6.4h-.1c-.6-.7-2-1.2-3.1-1.2-3.8 0-5.8 3.1-5.8 6 0 2.2 1.1 3.7 1.8 4.5 1.1 1.101 2.5 1.601 4 1.601.9.099 2-.101 3.2-1.101zm-2.9-1.6c-1.8 0-3-1.5-3-3.3 0-1.9 1.4-3.3 3-3.3 1.8 0 3.101 1.8 3.101 3.3-.101 1.9-1.401 3.3-3.101 3.3zm17.4-8.2l-.101-.9H122v11.7h3.1v-6c0-2.7 1.801-3.1 2.7-3.1 1.8 0 2.4 1.5 2.4 2.8v6.3h3.1v-6.3c0-3.5-1.899-5.7-5.1-5.7-2.1-.1-3 1.1-3 1.2zm-61 4.7c0-3.5-2.4-5.9-5.8-5.9s-5.8 2.5-5.8 6 2.5 6 6 6c2 0 3.9-.8 5.1-2-.2-.199-1.6-1.8-1.8-2-.6.7-1.6 1.4-3 1.4-1.6 0-2.7-.9-3.1-2.4h8.4V18zm-8.4-1c.4-1.4 1.4-2.1 2.7-2.1 1.4 0 2.2.8 2.6 2.1h-5.3z"/></svg>