<svg xmlns="http://www.w3.org/2000/svg" width="32" height="32" viewBox="0 0 32 32"><title>01-04-Outline-Produits-Carte perdue</title><g id="Produits"><path d="M27.71,18.29a1,1,0,0,0-1.42,0L24,20.59l-2.29-2.3a1,1,0,0,0-1.42,1.42L22.59,22l-2.3,2.29a1,1,0,0,0,0,1.42,1,1,0,0,0,1.42,0L24,23.41l2.29,2.3a1,1,0,0,0,1.42,0,1,1,0,0,0,0-1.42L25.41,22l2.3-2.29A1,1,0,0,0,27.71,18.29Z" fill="#666"/><path d="M25,6H7A3,3,0,0,0,4,9V21a3,3,0,0,0,3,3h9a1,1,0,0,0,0-2H7a1,1,0,0,1-1-1V13H26v2a1,1,0,0,0,2,0V9A3,3,0,0,0,25,6ZM6,11V9A1,1,0,0,1,7,8H25a1,1,0,0,1,1,1v2Z" fill="#666"/><rect x="8" y="15" width="4" height="4" rx="1" fill="#666"/></g></svg>