<svg xmlns="http://www.w3.org/2000/svg" width="32" height="32" viewBox="0 0 32 32"><title>01-04-Outline-Contenu-Concours</title><g id="Produits"><path d="M23,26H9a1,1,0,0,0,0,2H23a1,1,0,0,0,0-2Z" fill="#666"/><path d="M27.76,7.74a1,1,0,0,0-1-.76H23V5a1,1,0,0,0-1-1H10A1,1,0,0,0,9,5V7H5.26a1.05,1.05,0,0,0-1,.76c0,.14-.89,3.32.76,5.48A5.13,5.13,0,0,0,9.33,15,7,7,0,0,0,15,19.92s0,0,0,.08v2H11a1,1,0,0,0,0,2H21a1,1,0,0,0,0-2H17V20s0-.05,0-.08A7,7,0,0,0,22.71,15a.75.75,0,0,0,.16,0A4.86,4.86,0,0,0,27,13.27C28.62,11.13,27.8,7.88,27.76,7.74ZM6.13,9H9v3.89a3.05,3.05,0,0,1-2.36-1A4.23,4.23,0,0,1,6.13,9ZM21,13a5,5,0,1,1-10,0V6H21Zm4.36-1A2.83,2.83,0,0,1,23,13V9h2.93A4.36,4.36,0,0,1,25.36,12Z" fill="#666"/></g></svg>