<svg xmlns="http://www.w3.org/2000/svg" width="32" height="32" viewBox="0 0 32 32"><title>01-04-Outline-Contenu-Favoris comptes</title><g id="Media_Sociaux" data-name="Media Sociaux"><path d="M22.8,28a1,1,0,0,1-.58-.18L16,23.45,9.78,27.82a1,1,0,0,1-1.15,0,1,1,0,0,1-.39-1.08l2-7.65L4.36,14.17A1,1,0,0,1,5,12.4l7.49-.31,2.61-7.42a1,1,0,0,1,1.88,0l2.61,7.42L27,12.4a1,1,0,0,1,.6,1.77l-5.93,4.92,2.05,7.65a1,1,0,0,1-1,1.26ZM16,21.23a1,1,0,0,1,.57.18l4.55,3.19L19.62,19a1,1,0,0,1,.32-1l4.42-3.67-5.57-.23a1,1,0,0,1-.9-.67L16,8l-1.89,5.37a1,1,0,0,1-.9.67l-5.57.23L12.06,18a1,1,0,0,1,.32,1l-1.5,5.61,4.55-3.19A1,1,0,0,1,16,21.23Z" fill="#666"/></g></svg>