<svg xmlns="http://www.w3.org/2000/svg" width="32" height="32" viewBox="0 0 32 32"><title>01-04-Outline-Produits-Info-solde</title><g id="Media_Sociaux" data-name="Media Sociaux"><path d="M23.89,8a11.75,11.75,0,0,0-9.27-2.94A12.22,12.22,0,0,0,4.15,15.29a12.35,12.35,0,0,0,3.91,11.1A2.34,2.34,0,0,0,9.62,27,2.39,2.39,0,0,0,12,24.57a2.49,2.49,0,0,0-.82-1.81,7.5,7.5,0,0,1-2.28-7A7.32,7.32,0,0,1,14.54,10a7.12,7.12,0,0,1,6,1.48,7.47,7.47,0,0,1,2.73,5.8,7.55,7.55,0,0,1-2.43,5.54A2.45,2.45,0,0,0,20,24.58a2.37,2.37,0,0,0,4,1.78A12.37,12.37,0,0,0,23.89,8ZM22.63,24.88a.37.37,0,0,1-.4.07.38.38,0,0,1-.23-.38.46.46,0,0,1,.17-.33,9.5,9.5,0,0,0,2.24-10.91l.16-.09a1.47,1.47,0,0,0,.45-.4,10.35,10.35,0,0,1-2.39,12Z" fill="#666"/><path d="M18.05,16.87a6,6,0,0,0-1.84-.66,4,4,0,0,1-1.29-.44.35.35,0,0,1-.17-.31c0-.08,0-.18.22-.31a1.92,1.92,0,0,1,1-.21,1.51,1.51,0,0,1,.93.25c.31.24,1,.74,1.54.32a.66.66,0,0,0,.1-1,2.46,2.46,0,0,0-1.1-.83,2.54,2.54,0,0,0-.47-.14V12.36a.37.37,0,0,0-.38-.36h-.75a.37.37,0,0,0-.37.36v1.1a3.33,3.33,0,0,0-1.54.48A1.78,1.78,0,0,0,13,15.47a1.69,1.69,0,0,0,.32,1,2.26,2.26,0,0,0,.9.7,6.88,6.88,0,0,0,1.47.47,6.11,6.11,0,0,1,1.14.35,1.05,1.05,0,0,1,.35.23.37.37,0,0,1,.07.25c0,.13,0,.23-.25.36a2,2,0,0,1-1,.22,2.18,2.18,0,0,1-1.15-.26c-.48-.3-1.07-.67-1.58-.25a.63.63,0,0,0-.06.94,2.59,2.59,0,0,0,1.21.83,4.88,4.88,0,0,0,1.05.21v1.11a.37.37,0,0,0,.37.36h.75a.37.37,0,0,0,.38-.36V20.46a3.72,3.72,0,0,0,.48-.11,2.55,2.55,0,0,0,1.13-.73A1.75,1.75,0,0,0,19,18.47,1.84,1.84,0,0,0,18.05,16.87Z" fill="#666"/></g></svg>