<svg xmlns="http://www.w3.org/2000/svg" width="32" height="32" viewBox="0 0 32 32"><title>01-04-Outline-Contenu-Conseiller homme</title><g id="Contenu"><path d="M16,18a7,7,0,1,0-7-7A7,7,0,0,0,16,18ZM16,6a5,5,0,1,1-5,5A5,5,0,0,1,16,6Z" fill="#666"/><path d="M19.67,20H12.33C7.74,20,4,23.14,4,27a1,1,0,0,0,2,0c0-2.76,2.84-5,6.33-5h1.39L13,24.76a1,1,0,0,0,.26.95l2,2a1,1,0,0,0,1.42,0l2-2a1,1,0,0,0,.26-.95L18.28,22h1.39C23.16,22,26,24.24,26,27a1,1,0,0,0,2,0C28,23.14,24.26,20,19.67,20Zm-2.78,4.69-.89.9-.89-.9L15.78,22h.44Z" fill="#666"/><path d="M23,24H22a1,1,0,0,0,0,2h1a1,1,0,0,0,0-2Z" fill="#666"/></g></svg>