<svg xmlns="http://www.w3.org/2000/svg" width="32" height="32" viewBox="0 0 32 32"><title>01-04-Outline-Produits-Mes projets</title><g id="Produits"><path d="M25,14h-.5V6a2,2,0,0,0-2-2H9.5a2,2,0,0,0-2,2v5H7a3,3,0,0,0-3,3V25a3,3,0,0,0,3,3H25a3,3,0,0,0,3-3V17A3,3,0,0,0,25,14ZM9.5,6h13v8H16.41l-2.7-2.71A1,1,0,0,0,13,11H9.5ZM26,25a1,1,0,0,1-1,1H7a1,1,0,0,1-1-1V14a1,1,0,0,1,1-1h5.59l2.7,2.71A1,1,0,0,0,16,16h9a1,1,0,0,1,1,1Z" fill="#666"/><path d="M20.5,9a1,1,0,0,0-1-1h-7a1,1,0,0,0,0,2h7A1,1,0,0,0,20.5,9Z" fill="#666"/></g></svg>