<svg xmlns="http://www.w3.org/2000/svg" width="32" height="32" viewBox="0 0 32 32"><title>01-04-Outline-Produits-Voyage</title><g id="Produits"><path d="M27.6,9.63a3,3,0,0,0-4.13-1.12l-2.1,1.23L13,4.65a1,1,0,0,0-1,0L9.33,6.17A1,1,0,0,0,9.09,7.7l5.46,6L9,17,5.26,16a1,1,0,0,0-1,.36,1,1,0,0,0-.08,1.1l1.51,2.66a1.15,1.15,0,0,0,.32.34l1.46,1,.11,1.78a.94.94,0,0,0,.13.44l1.51,2.65a1,1,0,0,0,.87.51h.13A1,1,0,0,0,11,26l1-3.78L17.55,19,20,26.8a1,1,0,0,0,.59.63.92.92,0,0,0,.36.07,1,1,0,0,0,.51-.14l2.62-1.53a1,1,0,0,0,.49-.88L24.38,15l2.12-1.24A3.06,3.06,0,0,0,27.6,9.63ZM21.51,25l-2.19-7,3.08-1.8.13,8.22ZM11.4,7.27l1-.61,7,4.23-.54.32L16.31,12.7Zm14.09,4.78L10.64,20.74a1,1,0,0,0-.46.61L9.7,23.17l-.19-.33-.12-2.05A1,1,0,0,0,9,20L7.26,18.89l-.2-.35L8.87,19a1,1,0,0,0,.77-.11l7-4.08h0l4.55-2.66,3.31-1.94a1,1,0,0,1,1.38.38A1.07,1.07,0,0,1,25.49,12.05Z" fill="#666"/></g></svg>