<svg xmlns="http://www.w3.org/2000/svg" width="32" height="32" viewBox="0 0 32 32"><title>01-04-Outline-Produits-Assurances</title><g id="Produits"><path d="M25.46,9.5C22.81,6.85,18.84,6.21,17,6.05V5a1,1,0,0,0-2,0V6C4.13,6.57,4,15.9,4,16a1,1,0,0,0,1,1H15v8.64a1.63,1.63,0,0,1-2.29-.24,1,1,0,1,0-1.42,1.4A3.66,3.66,0,0,0,13.93,28a4.18,4.18,0,0,0,2.78-1.2,1,1,0,0,0,.29-.7V17H27a1,1,0,0,0,1-1A8.81,8.81,0,0,0,25.46,9.5ZM6.1,15a8,8,0,0,1,6.36-6.6A7.64,7.64,0,0,0,9,15ZM11,15c0-4.61,4.11-5.78,5-6a6.07,6.07,0,0,1,5,6Zm12,0a7.61,7.61,0,0,0-3.19-6.41,9.88,9.88,0,0,1,4.24,2.32A6.69,6.69,0,0,1,26,15Z" fill="#666"/></g></svg>