<svg xmlns="http://www.w3.org/2000/svg" width="32" height="32" viewBox="0 0 32 32"><title>01-04-Outline-Contenu-Conseiller femme</title><g id="Contenu"><path d="M16,18a7,7,0,1,0-7-7A7,7,0,0,0,16,18ZM16,6a5,5,0,1,1-5,5A5,5,0,0,1,16,6Z" fill="#666"/><path d="M20.2,20h-.12l-.41,0H12.33l-.41,0H11.8C7.45,20.26,4,23.29,4,27a1,1,0,0,0,2,0c0-2.53,2.4-4.63,5.5-4.95l3.67,5.5a1,1,0,0,0,1.66,0l3.67-5.5c3.1.32,5.5,2.42,5.5,4.95a1,1,0,0,0,2,0C28,23.29,24.55,20.26,20.2,20ZM16,25.2,13.87,22h4.26Z" fill="#666"/><path d="M23,24H22a1,1,0,0,0,0,2h1a1,1,0,0,0,0-2Z" fill="#666"/></g></svg>