<svg xmlns="http://www.w3.org/2000/svg" width="32" height="32" viewBox="0 0 32 32"><title>01-04-Outline-Produits-Habitation</title><g id="Produits"><path d="M27,7.88A1,1,0,0,0,26,7H25V5a1,1,0,0,0-1-1H20a1,1,0,0,0-1,1V7H6a1,1,0,0,0-1,.88l-1,8a1,1,0,0,0,.24.78A1,1,0,0,0,5,17V27a1,1,0,0,0,1,1H26a1,1,0,0,0,1-1V17a1,1,0,0,0,.75-.34,1,1,0,0,0,.24-.78ZM21,6h2V7H21ZM6.88,9H25.12l.75,6H18.24l-5.79-2.89a1,1,0,0,0-.9,0L6.16,14.8ZM11,26V21h2v5Zm14,0H15V20a1,1,0,0,0-1-1H10a1,1,0,0,0-1,1v6H7V16.62l5-2.5,5.55,2.77A1,1,0,0,0,18,17h7Z" fill="#666"/><path d="M17,20v3a1,1,0,0,0,1,1h4a1,1,0,0,0,1-1V20a1,1,0,0,0-1-1H18A1,1,0,0,0,17,20Zm2,1h2v1H19Z" fill="#666"/></g></svg>