<svg xmlns="http://www.w3.org/2000/svg" width="32" height="32" viewBox="0 0 32 32"><title>01-04-Outline-Contenu-Hameçonnage</title><g id="Produits"><path d="M25,4H7A3,3,0,0,0,4,7V25a3,3,0,0,0,3,3H25a3,3,0,0,0,3-3V7A3,3,0,0,0,25,4ZM7,6H25a1,1,0,0,1,1,1v3H6V7A1,1,0,0,1,7,6ZM25,26H7a1,1,0,0,1-1-1V12H26V25A1,1,0,0,1,25,26Z" fill="#666"/><circle cx="9" cy="8" r="1" fill="#666"/><circle cx="13" cy="8" r="1" fill="#666"/><path d="M16,20a1,1,0,0,0,1-1V15a1,1,0,0,0-2,0v4A1,1,0,0,0,16,20Z" fill="#666"/><circle cx="16" cy="23" r="1.5" fill="#666"/></g></svg>