<svg xmlns="http://www.w3.org/2000/svg" width="32" height="32" viewBox="0 0 32 32"><title>01-04-Outline-Produits-Etudiants</title><g id="Produits"><path d="M27.41,10.09l-11-5a1,1,0,0,0-.82,0l-11,5a1,1,0,0,0,0,1.82L5,12.1v9.78L4,25.76a1,1,0,0,0,.18.86A1,1,0,0,0,5,27H7a1,1,0,0,0,.79-.38A1,1,0,0,0,8,25.76L7,21.88V13l1,.45V20a.14.14,0,0,0,0,.07.7.7,0,0,0,.05.25.94.94,0,0,0,.06.15,1.3,1.3,0,0,0,.15.2l.08.1a12.7,12.7,0,0,0,7.5,2.44h.44a12.31,12.31,0,0,0,7.22-2.36h0l0,0s0,0,0,0a.77.77,0,0,0,.21-.23l0,0a1.12,1.12,0,0,0,.12-.32v-.07A.5.5,0,0,0,24,20V13.46l3.41-1.55a1,1,0,0,0,0-1.82ZM22,19.44a12.42,12.42,0,0,1-5.93,1.78A12.54,12.54,0,0,1,10,19.45V14.37l5.59,2.54a1,1,0,0,0,.82,0L22,14.37ZM16,14.9,7.42,11,16,7.1,24.58,11Z" fill="#666"/></g></svg>