<svg xmlns="http://www.w3.org/2000/svg" width="32" height="32" viewBox="0 0 32 32"><title>01-04-Outline-Contenu-Calendrier</title><g id="Contenu"><path d="M25,6H21V5a1,1,0,0,0-2,0V6H13V5a1,1,0,0,0-2,0V6H7A3,3,0,0,0,4,9V25a3,3,0,0,0,3,3H25a3,3,0,0,0,3-3V9A3,3,0,0,0,25,6ZM6,9A1,1,0,0,1,7,8h4V9a1,1,0,0,0,2,0V8h6V9a1,1,0,0,0,2,0V8h4a1,1,0,0,1,1,1v3H6ZM26,25a1,1,0,0,1-1,1H7a1,1,0,0,1-1-1V14H26Z" fill="#666"/><path d="M10,19a1,1,0,0,0,1-1V17a1,1,0,0,0-2,0v1A1,1,0,0,0,10,19Z" fill="#666"/><path d="M16,19a1,1,0,0,0,1-1V17a1,1,0,0,0-2,0v1A1,1,0,0,0,16,19Z" fill="#666"/><path d="M22,19a1,1,0,0,0,1-1V17a1,1,0,0,0-2,0v1A1,1,0,0,0,22,19Z" fill="#666"/><path d="M10,24a1,1,0,0,0,1-1V22a1,1,0,0,0-2,0v1A1,1,0,0,0,10,24Z" fill="#666"/><path d="M16,24a1,1,0,0,0,1-1V22a1,1,0,0,0-2,0v1A1,1,0,0,0,16,24Z" fill="#666"/><path d="M22,24a1,1,0,0,0,1-1V22a1,1,0,0,0-2,0v1A1,1,0,0,0,22,24Z" fill="#666"/></g></svg>