<svg xmlns="http://www.w3.org/2000/svg" width="32" height="32" viewBox="0 0 32 32"><title>01-04-Outline-Produits-Depot mobile</title><g id="Media_Sociaux" data-name="Media Sociaux"><path d="M15,12.5a.5.5,0,0,1-.5.5h-1a.5.5,0,0,1-.5-.5v-1a.5.5,0,0,1,.5-.5h1a.5.5,0,0,1,.5.5Z" fill="none"/><path d="M6,25a1,1,0,0,0,1,1h4a1,1,0,0,1,0-2h2a1,1,0,0,1,0,2h4a1,1,0,0,0,1-1V23H6Z" fill="none"/><path d="M10,17V9a1,1,0,0,1,1-1h7V7a1,1,0,0,0-1-1H7A1,1,0,0,0,6,7V21H18V18H11A1,1,0,0,1,10,17Z" fill="none"/><path d="M27,8H20V7a3,3,0,0,0-3-3H7A3,3,0,0,0,4,7V25a3,3,0,0,0,3,3H17a3,3,0,0,0,3-3V18h7a1,1,0,0,0,1-1V9A1,1,0,0,0,27,8ZM18,25a1,1,0,0,1-1,1H13a1,1,0,0,0,0-2H11a1,1,0,0,0,0,2H7a1,1,0,0,1-1-1V23H18Zm0-4H6V7A1,1,0,0,1,7,6H17a1,1,0,0,1,1,1V8H11a1,1,0,0,0-1,1v8a1,1,0,0,0,1,1h7Zm8-5H12V10H26Z" fill="#666"/><path d="M19,13a1,1,0,0,0,0,2h5a1,1,0,0,0,0-2H19Z" fill="#666"/><rect x="13" y="11" width="2" height="2" rx="0.5" fill="#666"/></g></svg>