<svg xmlns="http://www.w3.org/2000/svg" width="32" height="32" viewBox="0 0 32 32"><title>01-04-Outline-Contenu-Formulaire</title><g id="Produits"><path d="M24,28H8a3,3,0,0,1-3-3V7A3,3,0,0,1,8,4H24a3,3,0,0,1,3,3V25A3,3,0,0,1,24,28ZM8,6A1,1,0,0,0,7,7V25a1,1,0,0,0,1,1H24a1,1,0,0,0,1-1V7a1,1,0,0,0-1-1Z" fill="#666"/><path d="M21,12H11a1,1,0,0,1,0-2H21a1,1,0,0,1,0,2Z" fill="#666"/><path d="M21,17H15a1,1,0,0,1,0-2h6a1,1,0,0,1,0,2Z" fill="#666"/><path d="M21,22H15a1,1,0,0,1,0-2h6a1,1,0,0,1,0,2Z" fill="#666"/><circle cx="11" cy="16" r="1" fill="#666"/><circle cx="11" cy="21" r="1" fill="#666"/></g></svg>