<svg xmlns="http://www.w3.org/2000/svg" width="32" height="32" viewBox="0 0 32 32"><title>01-04-Outline-Contenu-Par téléphone</title><g id="Produits"><path d="M19.6,28a3.46,3.46,0,0,1-.85-.09,1,1,0,0,1-.29-.12C6.36,20.41,6,9.93,6,9.49a1,1,0,0,1,.07-.39c1.41-3.55,5.36-5,5.52-5a1,1,0,0,1,1.16.37L16.57,10a1,1,0,0,1-.12,1.27l-2.78,2.83,3.43,5,3.71-1.53a1,1,0,0,1,1.2.36l3.81,5.56a1,1,0,0,1-.07,1.24C23.44,27.31,21.08,28,19.6,28Zm-.25-2c.69.09,2.43-.15,4.37-2l-2.9-4.23-3.71,1.52a1,1,0,0,1-1.2-.36l-4.36-6.35a1,1,0,0,1,.11-1.27l2.79-2.83L11.58,6.25A7.63,7.63,0,0,0,8,9.64C8.11,11.09,9.11,19.67,19.35,26Z" fill="#666"/></g></svg>