<svg xmlns="http://www.w3.org/2000/svg" width="32" height="32" viewBox="0 0 32 32"><title>01-04-Outline-Contenu-Changement adresse</title><g id="Produits"><polygon points="6.8 18 8.3 19 20 19 20 17 8.3 17 6.8 18" fill="none"/><path d="M27.55,9.17l-3-2A1,1,0,0,0,24,7H17V5a1,1,0,0,0-2,0V7H11a1,1,0,0,0-1,1v4a1,1,0,0,0,1,1h4v2H8a1,1,0,0,0-.55.17l-3,2a1,1,0,0,0,0,1.66l3,2A1,1,0,0,0,8,21h7v6a1,1,0,0,0,2,0V21h4a1,1,0,0,0,1-1V16a1,1,0,0,0-1-1H17V13h7a1,1,0,0,0,.55-.17l3-2a1,1,0,0,0,0-1.66ZM20,17v2H8.3L6.8,18l1.5-1H20Zm3.7-6H12V9H23.7l1.5,1Z" fill="#666"/></g></svg>