<svg xmlns="http://www.w3.org/2000/svg" width="32" height="32" viewBox="0 0 32 32"><title>01-04-Outline-Produits-Fonds Desjardins</title><g id="Media_Sociaux" data-name="Media Sociaux"><path d="M27,26H25V17a1,1,0,0,0-2,0v9H17V19a1,1,0,0,0-2,0v7H9V22a1,1,0,0,0-2,0v4H5a1,1,0,0,0,0,2H27a1,1,0,0,0,0-2Z" fill="#666"/><path d="M27,4H22a1,1,0,0,0,0,2h2.68l-4.9,5.72L13.5,8.13a1,1,0,0,0-1.21.16l-8,8a1,1,0,0,0,0,1.42,1,1,0,0,0,1.42,0l7.46-7.46,6.33,3.62a1,1,0,0,0,1.26-.22L26,7.54V10a1,1,0,0,0,2,0V5A1,1,0,0,0,27,4Z" fill="#666"/></g></svg>