<svg xmlns="http://www.w3.org/2000/svg" width="32" height="32" viewBox="0 0 32 32"><title>01-04-Outline-Produits-Compte épargnes</title><g id="Produits"><path d="M25,10H23.48l-3.7-4.62a1,1,0,0,0-1.33-.21l-3,2a.77.77,0,0,0-.16.15L10.55,4.17A1,1,0,0,0,9.74,4a1,1,0,0,0-.63.52L6.34,10.08A3,3,0,0,0,4,13V24a3,3,0,0,0,3,3H25a3,3,0,0,0,3-3V13A3,3,0,0,0,25,10ZM18.79,7.34,20.92,10H19.3L17.05,8.5Zm-8.4-.88L15.7,10H8.62ZM26,24a1,1,0,0,1-1,1H7a1,1,0,0,1-1-1V13a1,1,0,0,1,1-1H25a1,1,0,0,1,1,1v2H21a2,2,0,0,0-2,2v3a2,2,0,0,0,2,2h5Zm0-4H21V17h5Z" fill="#666"/></g></svg>