<svg xmlns="http://www.w3.org/2000/svg" width="32" height="32" viewBox="0 0 32 32"><title>01-04-Outline-Contenu-Message lu</title><g id="Contenu"><path d="M27.48,10.12,24,8.22V5a1,1,0,0,0-1-1H9A1,1,0,0,0,8,5V8.22l-3.48,1.9A1,1,0,0,0,4,11V25a3,3,0,0,0,3,3H25a3,3,0,0,0,3-3V11A1,1,0,0,0,27.48,10.12Zm-2.13,1.12L24,12.32V10.5ZM22,6v7.92l-6,4.8-6-4.8V6ZM8,12.32,6.65,11.24,8,10.5ZM25,26H7a1,1,0,0,1-1-1V13.28l9.38,7.5a1,1,0,0,0,1.24,0L26,13.28V25A1,1,0,0,1,25,26Z" fill="#666"/><path d="M13,10h6a1,1,0,0,0,0-2H13a1,1,0,0,0,0,2Z" fill="#666"/><path d="M13,14h6a1,1,0,0,0,0-2H13a1,1,0,0,0,0,2Z" fill="#666"/></g></svg>