<svg xmlns="http://www.w3.org/2000/svg" width="32" height="32" viewBox="0 0 32 32"><title>01-04-Outline-Contenu-Caméra</title><g id="Media_Sociaux" data-name="Media Sociaux"><path d="M16,13a5,5,0,1,0,5,5A5,5,0,0,0,16,13Zm0,8a3,3,0,1,1,3-3A3,3,0,0,1,16,21Z" fill="#666"/><path d="M25,9H23.6L21.73,5.53A1,1,0,0,0,20.85,5h-9.7a1,1,0,0,0-.88.53L8.4,9H7a3,3,0,0,0-3,3V24a3,3,0,0,0,3,3H25a3,3,0,0,0,3-3V12A3,3,0,0,0,25,9Zm1,15a1,1,0,0,1-1,1H7a1,1,0,0,1-1-1V12a1,1,0,0,1,1-1H9a1,1,0,0,0,.88-.53L11.75,7h8.5l1.87,3.47A1,1,0,0,0,23,11h2a1,1,0,0,1,1,1Z" fill="#666"/><circle cx="23" cy="14" r="1.5" fill="#666"/></g></svg>