<svg xmlns="http://www.w3.org/2000/svg" width="32" height="32" viewBox="0 0 32 32"><title>01-04-Outline-Produits-Hop Épargne</title><g id="Media_Sociaux" data-name="Media Sociaux"><polygon points="12.13 15.5 10.78 15.5 10.78 12.14 9.5 12.14 9.5 19.87 10.78 19.87 10.78 16.62 12.13 16.62 12.13 19.87 13.41 19.87 13.41 12.14 12.13 12.14 12.13 15.5" fill="#666"/><path d="M16.14,12a1.78,1.78,0,0,0-1.91,1.83v4.33A1.78,1.78,0,0,0,16.14,20a1.79,1.79,0,0,0,1.92-1.84V13.84A1.78,1.78,0,0,0,16.14,12Zm.63,6.26a.63.63,0,0,1-1.25,0V13.75a.63.63,0,1,1,1.25,0Z" fill="#666"/><path d="M20.93,12.15H18.88v7.72h1.28V16.82h.77a1.42,1.42,0,0,0,1.57-1.56V13.71A1.42,1.42,0,0,0,20.93,12.15Zm.33,3.17c0,.34-.13.51-.44.51h-.66V13.2h.66c.31,0,.44.17.44.51Z" fill="#666"/><path d="M16,4A12,12,0,1,0,28,16,12,12,0,0,0,16,4Zm0,22A10,10,0,1,1,26,16,10,10,0,0,1,16,26Z" fill="#666"/></g></svg>