<svg xmlns="http://www.w3.org/2000/svg" width="32" height="32" viewBox="0 0 32 32"><title>01-04-Outline-Contenu-Factures</title><g id="Produits"><path d="M24,4H8A3,3,0,0,0,5,7V27a1,1,0,0,0,1.55.83l2.52-1.68,3.48,1.74a1,1,0,0,0,1-.06l2.52-1.68,3.48,1.74A1,1,0,0,0,20,28a1,1,0,0,0,.55-.17L23,26.2l2.45,1.63A1,1,0,0,0,27,27V7A3,3,0,0,0,24,4Zm1,21.13-1.45-1a1,1,0,0,0-1.1,0l-2.52,1.68-3.48-1.74A1,1,0,0,0,16,24a1,1,0,0,0-.55.17l-2.52,1.68L9.45,24.11a1,1,0,0,0-1,.06L7,25.13V7A1,1,0,0,1,8,6H24a1,1,0,0,1,1,1Z" fill="#666"/><path d="M21,20H11a1,1,0,0,0,0,2H21a1,1,0,0,0,0-2Z" fill="#666"/><path d="M14.22,13.18a6.88,6.88,0,0,0,1.47.47,6.11,6.11,0,0,1,1.14.35,1.05,1.05,0,0,1,.35.23.37.37,0,0,1,.07.25c0,.13,0,.23-.25.36a2,2,0,0,1-1,.22,2.18,2.18,0,0,1-1.15-.26c-.48-.3-1.07-.67-1.58-.25a.63.63,0,0,0-.06.94,2.59,2.59,0,0,0,1.21.83,4.88,4.88,0,0,0,1.05.21v1.11a.37.37,0,0,0,.37.36h.75a.37.37,0,0,0,.38-.36V16.46a3.72,3.72,0,0,0,.48-.11,2.55,2.55,0,0,0,1.13-.73A1.75,1.75,0,0,0,19,14.47a1.84,1.84,0,0,0-.95-1.6,6,6,0,0,0-1.84-.66,4,4,0,0,1-1.29-.44.35.35,0,0,1-.17-.31c0-.08,0-.18.22-.31a1.92,1.92,0,0,1,1-.21,1.51,1.51,0,0,1,.93.25c.31.24,1,.74,1.54.32a.66.66,0,0,0,.1-1,2.46,2.46,0,0,0-1.1-.83A2.54,2.54,0,0,0,17,9.57V8.36A.37.37,0,0,0,16.58,8h-.75a.37.37,0,0,0-.37.36v1.1a3.33,3.33,0,0,0-1.54.48A1.78,1.78,0,0,0,13,11.47a1.69,1.69,0,0,0,.32,1A2.26,2.26,0,0,0,14.22,13.18Z" fill="#666"/></g></svg>