<svg xmlns="http://www.w3.org/2000/svg" width="32" height="32" viewBox="0 0 32 32"><title>01-04-Outline-Contenu-Calculateur</title><g id="Media_Sociaux" data-name="Media Sociaux"><path d="M23,4H9A3,3,0,0,0,6,7V25a3,3,0,0,0,3,3H23a3,3,0,0,0,3-3V7A3,3,0,0,0,23,4Zm1,21a1,1,0,0,1-1,1H9a1,1,0,0,1-1-1V7A1,1,0,0,1,9,6H23a1,1,0,0,1,1,1Z" fill="#666"/><path d="M11,14H21a1,1,0,0,0,1-1V9a1,1,0,0,0-1-1H11a1,1,0,0,0-1,1v4A1,1,0,0,0,11,14Zm1-4h8v2H12Z" fill="#666"/><path d="M21,19a1,1,0,0,0-1,1v3a1,1,0,0,0,2,0V20A1,1,0,0,0,21,19Z" fill="#666"/><path d="M21.5,16h-1a1,1,0,0,0,0,2h1a1,1,0,0,0,0-2Z" fill="#666"/><path d="M16.5,16h-1a1,1,0,0,0,0,2h1a1,1,0,0,0,0-2Z" fill="#666"/><path d="M16.5,19h-1a1,1,0,0,0,0,2h1a1,1,0,0,0,0-2Z" fill="#666"/><path d="M16.5,22h-1a1,1,0,0,0,0,2h1a1,1,0,0,0,0-2Z" fill="#666"/><path d="M11.5,16h-1a1,1,0,0,0,0,2h1a1,1,0,0,0,0-2Z" fill="#666"/><path d="M11.5,19h-1a1,1,0,0,0,0,2h1a1,1,0,0,0,0-2Z" fill="#666"/><path d="M11.5,22h-1a1,1,0,0,0,0,2h1a1,1,0,0,0,0-2Z" fill="#666"/></g></svg>