<svg xmlns="http://www.w3.org/2000/svg" width="32" height="32" viewBox="0 0 32 32"><title>01-04-Outline-Contenu-Assistance</title><g id="Media_Sociaux" data-name="Media Sociaux"><path d="M26.9,11a12.05,12.05,0,0,0-1.08-1.88,11.81,11.81,0,0,0-2.95-3A12.05,12.05,0,0,0,21,5.1a11.87,11.87,0,0,0-10,0A12.05,12.05,0,0,0,9.13,6.18a11.81,11.81,0,0,0-3,3A12.05,12.05,0,0,0,5.1,11a11.87,11.87,0,0,0,0,10,12.05,12.05,0,0,0,1.08,1.88,11.81,11.81,0,0,0,3,2.95A12.05,12.05,0,0,0,11,26.9a11.87,11.87,0,0,0,10,0,12.05,12.05,0,0,0,1.88-1.08,11.81,11.81,0,0,0,2.95-2.95A12.05,12.05,0,0,0,26.9,21a11.87,11.87,0,0,0,0-10ZM21.37,7.68a9.88,9.88,0,0,1,2.95,3l-2.68,2.68a6.21,6.21,0,0,0-2.95-3ZM20.17,16A4.25,4.25,0,0,1,20,17.07,4.19,4.19,0,0,1,17.07,20a3.89,3.89,0,0,1-2.14,0A4.19,4.19,0,0,1,12,17.07a3.89,3.89,0,0,1,0-2.14A4.19,4.19,0,0,1,14.93,12a3.89,3.89,0,0,1,2.14,0A4.19,4.19,0,0,1,20,14.93,4.25,4.25,0,0,1,20.17,16ZM16,6.09a9.81,9.81,0,0,1,3.4.61L16.34,9.76l-.34,0-.34,0L12.6,6.7A9.81,9.81,0,0,1,16,6.09ZM10.63,7.68l2.68,2.68a6.21,6.21,0,0,0-3,3L7.68,10.63A9.88,9.88,0,0,1,10.63,7.68ZM6.7,19.4a9.78,9.78,0,0,1,0-6.8l3.06,3.06c0,.11,0,.22,0,.34s0,.23,0,.34Zm3.93,4.92a9.88,9.88,0,0,1-3-2.95l2.68-2.68a6.21,6.21,0,0,0,3,2.95ZM16,25.91a9.81,9.81,0,0,1-3.4-.61l3.06-3.06.34,0,.34,0L19.4,25.3A9.81,9.81,0,0,1,16,25.91Zm5.37-1.59-2.68-2.68a6.21,6.21,0,0,0,2.95-2.95l2.68,2.68A9.88,9.88,0,0,1,21.37,24.32ZM25.3,19.4l-3.06-3.06c0-.11,0-.22,0-.34s0-.23,0-.34L25.3,12.6a9.78,9.78,0,0,1,0,6.8Z" fill="#666"/></g></svg>