<svg xmlns="http://www.w3.org/2000/svg" width="32" height="32" viewBox="0 0 32 32"><title>01-04-Outline-Contenu-Document</title><g id="Produits"><path d="M24,4H8A3,3,0,0,0,5,7V25a3,3,0,0,0,3,3H24a3,3,0,0,0,3-3V7A3,3,0,0,0,24,4Zm1,21a1,1,0,0,1-1,1H8a1,1,0,0,1-1-1V7A1,1,0,0,1,8,6H24a1,1,0,0,1,1,1Z" fill="#666"/><path d="M11,12h4a1,1,0,0,0,0-2H11a1,1,0,0,0,0,2Z" fill="#666"/><path d="M21,15H11a1,1,0,0,0,0,2H21a1,1,0,0,0,0-2Z" fill="#666"/><path d="M21,20H11a1,1,0,0,0,0,2H21a1,1,0,0,0,0-2Z" fill="#666"/></g></svg>