<svg xmlns="http://www.w3.org/2000/svg" width="32" height="32" viewBox="0 0 32 32"><title>01-04-Outline-Produits-Disnat</title><g id="Media_Sociaux" data-name="Media Sociaux"><path d="M27,4H21a1,1,0,0,0,0,2h3.73l-5.82,7.49-5.2-5.2a1,1,0,0,0-1.42,0l-8,8a1,1,0,0,0,0,1.42,1,1,0,0,0,1.42,0L13,10.41l5.29,5.3a1,1,0,0,0,1.5-.1l6.21-8V11a1,1,0,0,0,2,0V5A1,1,0,0,0,27,4Z" fill="#666"/><path d="M25.38,14.08a1,1,0,0,0-1.09.21L19,19.59l-5.29-5.3a1,1,0,0,0-1.46.05l-8,9A1,1,0,0,0,4,24v3a1,1,0,0,0,1,1H25a1,1,0,0,0,1-1V15A1,1,0,0,0,25.38,14.08ZM24,26H6V24.38l7-7.92,5.25,5.25a1,1,0,0,0,1.42,0L24,17.41Z" fill="#666"/></g></svg>