<svg xmlns="http://www.w3.org/2000/svg" width="32" height="32" viewBox="0 0 32 32"><title>01-04-Outline-Contenu-Conjoints</title><g id="Contenu"><path d="M12,18a5,5,0,1,0-5-5A5,5,0,0,0,12,18Zm-1-7.81A1.83,1.83,0,0,1,9.19,12,3,3,0,0,1,11,10.19Zm2,0A3,3,0,1,1,9.18,14,3.86,3.86,0,0,0,13,10.18Z" fill="#666"/><path d="M21.5,14A4.5,4.5,0,1,0,17,9.5,4.51,4.51,0,0,0,21.5,14Zm0-7A2.5,2.5,0,1,1,19,9.5,2.5,2.5,0,0,1,21.5,7Z" fill="#666"/><path d="M23.33,16H19.67A4.57,4.57,0,0,0,15,20.05a5.52,5.52,0,0,0-.71-.05H9.67A5.49,5.49,0,0,0,4,25.29V26a1,1,0,0,0,2,0v-.71A3.5,3.5,0,0,1,9.67,22h4.66A3.5,3.5,0,0,1,18,25.29V26a1,1,0,0,0,2,0v-.71a5.28,5.28,0,0,0-3-4.67v-.19A2.56,2.56,0,0,1,19.67,18h3.66A2.56,2.56,0,0,1,26,20.43V21a1,1,0,0,0,2,0v-.57A4.56,4.56,0,0,0,23.33,16Z" fill="#666"/></g></svg>