<svg xmlns="http://www.w3.org/2000/svg" width="32" height="32" viewBox="0 0 32 32"><title>01-04-Outline-Produits-Ristournes</title><g id="Media_Sociaux" data-name="Media Sociaux"><path d="M11.89,14h.5a.24.24,0,0,0,.25-.21v-.71L13,13a1.72,1.72,0,0,0,.75-.44,1,1,0,0,0,.29-.69,1.11,1.11,0,0,0-.63-1,4,4,0,0,0-1.23-.39,3,3,0,0,1-.86-.27.2.2,0,0,1-.12-.18c0-.05,0-.11.16-.19A1.41,1.41,0,0,1,12,9.76a1,1,0,0,1,.62.16c.21.14.65.44,1,.18a.36.36,0,0,0,.07-.57A1.72,1.72,0,0,0,13,9l-.32-.08V8.21A.24.24,0,0,0,12.39,8h-.5a.24.24,0,0,0-.25.21v.66a2.55,2.55,0,0,0-1,.29,1.05,1.05,0,0,0-.62.92.94.94,0,0,0,.21.61,1.77,1.77,0,0,0,.6.42,5.27,5.27,0,0,0,1,.28,4,4,0,0,1,.76.21.58.58,0,0,1,.24.14.21.21,0,0,1,0,.15c0,.07,0,.14-.16.21a1.44,1.44,0,0,1-.68.14,1.66,1.66,0,0,1-.77-.16c-.31-.18-.71-.4-1.05-.15a.36.36,0,0,0,0,.56,1.73,1.73,0,0,0,.81.5,3,3,0,0,0,.7.13v.67A.24.24,0,0,0,11.89,14Z" fill="#666"/><path d="M14,16.92v0a1,1,0,0,0-1.15-1A5.85,5.85,0,0,1,12,16a5,5,0,1,1,3.68-8.36,1,1,0,0,0,.76.36h0a1,1,0,0,0,.74-1.69A7,7,0,1,0,12,18a6.41,6.41,0,0,0,1.16-.1A1,1,0,0,0,14,16.92Z" fill="#666"/><path d="M20.63,17V11.55a1,1,0,0,0-.29-.7,2.63,2.63,0,0,0-1.9-.85,3,3,0,0,0-2,.85,1,1,0,0,0-.29.7v8.38l-.76-.76a1,1,0,0,0-.71-.3,2.58,2.58,0,0,0-2.64,2.67,1,1,0,0,0,.18.58l3.94,5.46A1,1,0,0,0,17,28a1,1,0,0,0,.58-.19,1,1,0,0,0,.23-1.39l-3.72-5.16a.52.52,0,0,1,.27-.32l2.11,2.12a1,1,0,0,0,1.08.22,1,1,0,0,0,.62-.93V12.07a.72.72,0,0,1,.28-.07.44.44,0,0,1,.19,0v5.33a1,1,0,0,0,.4.78A1,1,0,0,0,20,19c4.07,0,4.89.94,5,1.12V23.7l-1.83,2.75a1,1,0,0,0,.28,1.38A.94.94,0,0,0,24,28a1,1,0,0,0,.83-.45l2-3A1,1,0,0,0,27,24V20C27,19.32,26.51,17.16,20.63,17Z" fill="#666"/></g></svg>