<svg xmlns="http://www.w3.org/2000/svg" width="32" height="32" viewBox="0 0 32 32"><title>01-04-Outline-Contenu-Preferences</title><g id="Contenu"><path d="M17.49,28H14.54a1,1,0,0,1-.9-.58l-1.23-2.63-2.7,1a1,1,0,0,1-1.06-.24l-2.08-2.1a1,1,0,0,1-.23-1l1-2.83L4.51,17.87A1,1,0,0,1,4,17l0-2a1,1,0,0,1,.49-.86l2.85-1.69-1-2.83a1,1,0,0,1,.23-1l2.08-2.1a1,1,0,0,1,1.06-.24l2.7,1,1.23-2.63a1,1,0,0,1,.9-.58h2.95a1,1,0,0,1,.9.58l1.23,2.63,2.7-1a1,1,0,0,1,1.06.24l2.08,2.1a1,1,0,0,1,.23,1l-1,2.83,2.82,1.69A1,1,0,0,1,28,15v2a1,1,0,0,1-.49.86l-2.82,1.69,1,2.83a1,1,0,0,1-.23,1l-2.08,2.1a1,1,0,0,1-1.06.24l-2.7-1-1.23,2.63A1,1,0,0,1,17.49,28Zm-2.31-2h1.67l1.35-2.88a1,1,0,0,1,1.24-.52l3,1.07,1.19-1.2-1.06-3A1,1,0,0,1,23,18.27l3-1.83v-.88l-3-1.83a1,1,0,0,1-.43-1.19l1.06-3L22.4,8.33l-3,1.07a1,1,0,0,1-1.24-.52L16.85,6H15.18L13.83,8.88a1,1,0,0,1-1.25.52L9.63,8.33,8.44,9.53l1.06,3a1,1,0,0,1-.43,1.2L6,15.56v.87l3.06,1.84a1,1,0,0,1,.43,1.19l-1.06,3,1.19,1.2,2.95-1.07a1,1,0,0,1,1.25.52Z" fill="#666"/><path d="M16,20.5A4.5,4.5,0,1,1,20.5,16,4.51,4.51,0,0,1,16,20.5Zm0-7A2.5,2.5,0,1,0,18.5,16,2.5,2.5,0,0,0,16,13.5Z" fill="#666"/></g></svg>