<svg xmlns="http://www.w3.org/2000/svg">
  <title>Produits-Compte epargne</title>
  <path d="M9,16a10.88,10.88,0,0,0,1.92-.17,10.14,10.14,0,0,1,2.08-3A11.78,11.78,0,0,1,14,12a10.12,10.12,0,0,1,2.09-1.22A2.89,2.89,0,0,1,15,10.36V8.56A9.5,9.5,0,0,0,18,9a9.5,9.5,0,0,0,3-.44v1.49a10.14,10.14,0,0,1,2,.41V7a1,1,0,0,0,0-.17,1.84,1.84,0,0,0,0-.33C23,4.77,20.49,4,18,4s-5,.77-5,2.5a1.84,1.84,0,0,0,0,.33A1,1,0,0,0,13,7v.9A7.9,7.9,0,0,0,9,7C6.51,7,4,7.77,4,9.5a1.84,1.84,0,0,0,0,.33A1,1,0,0,0,4,10V21a1,1,0,0,0,0,.25,1,1,0,0,0,0,.25C4,23.23,6.51,24,9,24a11.33,11.33,0,0,0,1.77-.14,10.37,10.37,0,0,1-.58-1.94A8.57,8.57,0,0,1,9,22a5.5,5.5,0,0,1-3-.65s0-.07,0-.11A.93.93,0,0,0,6,21V19.56A9.5,9.5,0,0,0,9,20c.34,0,.67,0,1-.05a10.35,10.35,0,0,1,.22-2A8.92,8.92,0,0,1,9,18a5.58,5.58,0,0,1-3-.64v-1.8A9.5,9.5,0,0,0,9,16ZM18,6a6.65,6.65,0,0,1,2.77.5A6.65,6.65,0,0,1,18,7a6.65,6.65,0,0,1-2.77-.5A6.65,6.65,0,0,1,18,6ZM9,9a6.65,6.65,0,0,1,2.77.5A6.65,6.65,0,0,1,9,10a6.65,6.65,0,0,1-2.77-.5A6.65,6.65,0,0,1,9,9ZM6,11.56A9.5,9.5,0,0,0,9,12a9.5,9.5,0,0,0,3-.44v1.8A5.58,5.58,0,0,1,9,14a5.58,5.58,0,0,1-3-.64Z" />
  <path d="M20,12a8,8,0,1,0,8,8A8,8,0,0,0,20,12Zm2.05,10.1a2.1,2.1,0,0,1-.9.58c-.12,0-.25.06-.38.09v.94a.3.3,0,0,1-.3.29h-.6a.29.29,0,0,1-.3-.29v-.89a3.13,3.13,0,0,1-.84-.17,2,2,0,0,1-1-.66.5.5,0,0,1,0-.75c.41-.34.88,0,1.26.2a1.72,1.72,0,0,0,.92.21,1.57,1.57,0,0,0,.81-.18c.17-.1.2-.19.2-.29a.27.27,0,0,0-.06-.19.59.59,0,0,0-.28-.19,4.78,4.78,0,0,0-.91-.28,5.16,5.16,0,0,1-1.17-.38,2,2,0,0,1-.73-.55,1.44,1.44,0,0,1-.25-.82,1.43,1.43,0,0,1,.74-1.22,2.88,2.88,0,0,1,1.23-.39v-.87a.29.29,0,0,1,.3-.29h.6a.3.3,0,0,1,.3.29v1c.13,0,.26.06.38.11A2.15,2.15,0,0,1,22,18a.52.52,0,0,1-.09.77c-.46.34-1-.05-1.23-.25a1.23,1.23,0,0,0-.74-.2,1.55,1.55,0,0,0-.79.17c-.17.1-.18.18-.18.25a.28.28,0,0,0,.14.25,3.71,3.71,0,0,0,1,.35,4.53,4.53,0,0,1,1.47.53,1.46,1.46,0,0,1,.76,1.28A1.39,1.39,0,0,1,22.05,22.1Z"/>
</svg>