<svg xmlns="http://www.w3.org/2000/svg">
  <title>Media Sociaux-Twitter</title>
  <path d="M25.2,9.18a5.45,5.45,0,0,0,2.2-2.77,8.76,8.76,0,0,1-3.1,1.23A4.81,4.81,0,0,0,20.7,6a5,5,0,0,0-4.9,5,3.86,3.86,0,0,0,.1,1.12A14.27,14.27,0,0,1,5.7,6.92,5.44,5.44,0,0,0,5,9.49a5.18,5.18,0,0,0,2.2,4.2A5.13,5.13,0,0,1,5,13.08v.1A4.94,4.94,0,0,0,8.9,18.1a4.65,4.65,0,0,1-1.3.21,2.77,2.77,0,0,1-.9-.1,4.75,4.75,0,0,0,4.6,3.48,9.81,9.81,0,0,1-6.1,2.16A4.44,4.44,0,0,1,4,23.74,13.71,13.71,0,0,0,11.5,26c9.1,0,14-7.69,14-14.36V11A10.6,10.6,0,0,0,28,8.36,8.78,8.78,0,0,1,25.2,9.18Z"/>
</svg>