<svg xmlns="http://www.w3.org/2000/svg">
  <title>Contenu-Nouveaux arrivants</title>
  <path d="M27.33,16c-1.9-.54-.52-3.85-.52-3.85.48-1-.69-.76-.69-.76a1.86,1.86,0,0,1-3-.89c-.24-.8-.56,0-.56,0L21,13.22c-2,.59-1.82-1.05-1.82-1.05L20,6.86c-1.62,1.14-2.35-.38-2.35-.38l-1.06-2c-.65-1.14-1.3,0-1.3,0l-1,2c-.89,1.51-2.52.33-2.52.33L12.85,12c-.21,2.23-2,.8-2,.8l-1.5-2.36c-.45-1.17-.77,0-.77,0-.45,2.11-2.48,1-2.48,1-1.26-.38-1,1-1,1,1.74,3.29-1,3.75-1,3.75s-.49.83.5.83,4.66,3,4.66,3c2.35,1.39.73,2.48.73,2.48a12.7,12.7,0,0,1,5-.84V27a1,1,0,0,0,1,1h.06A1,1,0,0,0,17,27V21.53a2.64,2.64,0,0,1,.88,0l3.93.88c-1.13-1.3.74-2.36.74-2.36l4.78-3.28C28.83,16,27.33,16,27.33,16Z" />
</svg>