<svg xmlns="http://www.w3.org/2000/svg">
  <title>Produits-Etudiants</title>
  <path d="M27.41,10.09l-11-5a1,1,0,0,0-.82,0l-11,5A1,1,0,0,0,4,11a1,1,0,0,0,.07.34L5,11.7V21.88L4,25.76a1,1,0,0,0,.18.86A1,1,0,0,0,5,27H7a1,1,0,0,0,.79-.38A1,1,0,0,0,8,25.76L7,21.88V12.47l1,.39,8,3.07,8-3.07,4-1.52A1,1,0,0,0,28,11,1,1,0,0,0,27.41,10.09Z" />
  <path d="M16,18a.92.92,0,0,1-.36-.07L8,15v5a1,1,0,0,0,.36.77,12.7,12.7,0,0,0,7.5,2.44,14.46,14.46,0,0,0,7.67-2.36A1,1,0,0,0,24,20V15l-7.64,2.94A.92.92,0,0,1,16,18Z"/>
</svg>