<svg xmlns="http://www.w3.org/2000/svg">
  <title>Produits-Parts permanentes</title>
  <path d="M26,4H6A2,2,0,0,0,4,6V20a2,2,0,0,0,2,2h8.42A4.94,4.94,0,0,1,14,20a5,5,0,0,1,10,0,4.94,4.94,0,0,1-.42,2H26a2,2,0,0,0,2-2V6A2,2,0,0,0,26,4ZM12,16H9a1,1,0,0,1,0-2h3a1,1,0,0,1,0,2Zm11-5H9A1,1,0,0,1,9,9H23a1,1,0,0,1,0,2Z" />
  <path d="M20.94,22.27a3,3,0,1,0-3.88,0,.5.5,0,0,0,0,.13l-1,5a.5.5,0,0,0,.83.47l2.16-2,2.16,2a.53.53,0,0,0,.34.13.5.5,0,0,0,.24-.06A.52.52,0,0,0,22,27.4l-1-5A.5.5,0,0,0,20.94,22.27Z" />
</svg>