<svg xmlns="http://www.w3.org/2000/svg">
  <title>Contenu-Langues</title>
  <path d="M16.37,4,16,4l-.37,0a32.14,32.14,0,0,0-2.3,8.17c1.69.11,3.51.17,5.36.12A31.38,31.38,0,0,0,16.37,4Z" />
  <path d="M13.33,4.31A12,12,0,0,0,5,11.18c1.15.21,3.43.59,6.27.85A33.89,33.89,0,0,1,13.33,4.31Z" />
  <path d="M27,11.23a12,12,0,0,0-8.32-6.92,34.42,34.42,0,0,1,2.06,7.91A33.65,33.65,0,0,0,27,11.23Z" />
  <path d="M27.64,13.13a35.22,35.22,0,0,1-6.7,1.08,30.47,30.47,0,0,1,0,4.58,47.4,47.4,0,0,1,6.47.94A12.09,12.09,0,0,0,28,16,11.81,11.81,0,0,0,27.64,13.13Z" />
  <path d="M11.07,14c-3.15-.3-5.62-.74-6.7-.95A12.21,12.21,0,0,0,4,16a11.84,11.84,0,0,0,.64,3.83,56.72,56.72,0,0,1,6.44-.94A30.23,30.23,0,0,1,11.07,14Z" />
  <path d="M5.45,21.71a12,12,0,0,0,7.82,6,27.48,27.48,0,0,1-2-6.78C8.72,21.13,6.66,21.48,5.45,21.71Z" />
  <path d="M18.73,27.67a12,12,0,0,0,7.87-6.06,44.22,44.22,0,0,0-5.9-.82A27.59,27.59,0,0,1,18.73,27.67Z" />
  <path d="M13.11,14.2a29.77,29.77,0,0,0,0,4.53c1.78-.1,3.73-.14,5.79-.06a27.45,27.45,0,0,0,0-4.35l-1.61,0C15.84,14.34,14.44,14.29,13.11,14.2Z" />
  <path d="M13.34,20.74A25.27,25.27,0,0,0,15.63,28L16,28l.37,0a25.22,25.22,0,0,0,2.3-7.3C16.79,20.61,15,20.65,13.34,20.74Z"/>
</svg>