<svg xmlns="http://www.w3.org/2000/svg">
  <title>Produits-Compte en ligne</title>
  <path d="M11.18,6A1,1,0,0,0,12,4.82,1,1,0,0,0,10.82,4C8.54,4.43,6.45,6.54,5.5,9.39S5,15.14,6.65,16.72a1,1,0,0,0,.69.28,1,1,0,0,0,.72-.31,1,1,0,0,0,0-1.41C7,14.26,6.7,12.09,7.39,10S9.65,6.26,11.18,6Z"/>
  <path d="M26.5,9.39c-.95-2.85-3-5-5.32-5.37a1,1,0,0,0-1.17.8A1,1,0,0,0,20.82,6c1.53.27,3.09,1.93,3.79,4S25,14.26,24,15.28a1,1,0,0,0,0,1.41,1,1,0,0,0,.72.31,1,1,0,0,0,.69-.28C27,15.14,27.46,12.26,26.5,9.39Z"/>
  <path d="M11.58,15.61h0a1,1,0,0,0,.33-1.23,4.5,4.5,0,1,1,8.52-2.7,4.61,4.61,0,0,1-.33,2.68,1,1,0,0,0,.32,1.25h0a1,1,0,0,0,1.48-.37,6.5,6.5,0,1,0-11.79,0A1,1,0,0,0,11.58,15.61Z"/>
  <path d="M23.48,18.7A19.64,19.64,0,0,0,16.63,17v-5a1,1,0,0,0-.47-.86,1.55,1.55,0,0,0-1.47,0,1,1,0,0,0-.53.88V22.35l-2.11-2.12a1,1,0,0,0-1-.27,1.47,1.47,0,0,0-1,1,1,1,0,0,0,.15.87L14,28h8l1.83-3.75A1,1,0,0,0,24,23.7V19.57A1,1,0,0,0,23.48,18.7Z"/>
</svg>