<svg xmlns="http://www.w3.org/2000/svg">
  <title>Produits-Prêt</title>
  <path d="M27.09,25l-9-.55-4.56-4c-.77-.67-.09-1.42.68-.74l3.37,3a1,1,0,0,0,.92.23,1.81,1.81,0,0,0,1.38-1.27,1,1,0,0,0-.26-1l-3.51-3.44a1.06,1.06,0,0,0-.52-.28L10.85,16l-.2,0H5.32c-.53,0-1.28.41-1.32.93v3.75C4,21,4.32,22,5,22H9.73l5.83,5.71a1.06,1.06,0,0,0,.72.29H27.09S29.13,27,27.09,25Z" />
  <path d="M20.63,11.25a9.45,9.45,0,0,0,1.95.66,8.46,8.46,0,0,1,1.52.48,1.38,1.38,0,0,1,.47.33.61.61,0,0,1,.1.35c0,.18-.06.33-.33.5a2.52,2.52,0,0,1-1.35.32,2.8,2.8,0,0,1-1.54-.37c-.63-.42-1.42-.94-2.1-.35a.92.92,0,0,0-.08,1.32,3.44,3.44,0,0,0,1.61,1.15,5.2,5.2,0,0,0,1.4.3V17.5a.5.5,0,0,0,.5.5h1a.5.5,0,0,0,.5-.5V15.85a4.29,4.29,0,0,0,.64-.17,3.35,3.35,0,0,0,1.5-1A2.45,2.45,0,0,0,27,13.06a2.6,2.6,0,0,0-1.27-2.24,7.6,7.6,0,0,0-2.45-.93,5.1,5.1,0,0,1-1.71-.61.46.46,0,0,1-.24-.43c0-.12,0-.26.3-.44A2.43,2.43,0,0,1,23,8.11a1.9,1.9,0,0,1,1.23.36c.42.33,1.29,1,2.06.44a.94.94,0,0,0,.14-1.35,3.38,3.38,0,0,0-1.47-1.17,4.61,4.61,0,0,0-.63-.2V4.5a.5.5,0,0,0-.5-.5h-1a.5.5,0,0,0-.5.5V6a4.48,4.48,0,0,0-2.05.67A2.52,2.52,0,0,0,19,8.86a2.42,2.42,0,0,0,.42,1.41A3.09,3.09,0,0,0,20.63,11.25Z" />
</svg>