<svg xmlns="http://www.w3.org/2000/svg">
  <title>Produits-Hop Épargne</title>
  <path d="M16.14,13.12a.58.58,0,0,0-.62.63v4.52a.63.63,0,0,0,1.25,0V13.75A.58.58,0,0,0,16.14,13.12Z" />
  <path d="M20.82,13.2h-.66v2.63h.66c.31,0,.44-.17.44-.51V13.71C21.26,13.37,21.13,13.2,20.82,13.2Z" />
  <path d="M16,4A12,12,0,1,0,28,16,12,12,0,0,0,16,4ZM13.41,19.87H12.13V16.62H10.78v3.25H9.5V12.15h1.28V15.5h1.35V12.15h1.28Zm4.65-1.7A1.79,1.79,0,0,1,16.14,20a1.78,1.78,0,0,1-1.91-1.84V13.84A1.78,1.78,0,0,1,16.14,12a1.78,1.78,0,0,1,1.92,1.83Zm4.44-2.91a1.42,1.42,0,0,1-1.57,1.56h-.77v3.05H18.88V12.15h2.05a1.42,1.42,0,0,1,1.57,1.56Z"/>
</svg>