<svg xmlns="http://www.w3.org/2000/svg">
  <title>Contenu-Outils</title>
  <path d="M10.24,15.5A5.21,5.21,0,0,0,14,14a5.7,5.7,0,0,0-.26-8,4.79,4.79,0,0,0-5-1.27A.53.53,0,0,0,8.43,5a.54.54,0,0,0,0,.43l1.71,3.45L8.89,10.12,5.39,8.47a.47.47,0,0,0-.43,0,.49.49,0,0,0-.27.34A4.74,4.74,0,0,0,6,13.71,6,6,0,0,0,10.24,15.5Z" />
  <path d="M16.85,13.15a.48.48,0,0,0-.7,0l-3,3a.48.48,0,0,0,0,.7l10,10a2.21,2.21,0,0,0,1.58.64,2.63,2.63,0,0,0,1.85-.79l.17-.17a2.43,2.43,0,0,0,.15-3.43Z" />
  <path d="M27.71,4.29a1,1,0,0,0-1.22-.15l-5,3a1,1,0,0,0-.48.74,1,1,0,0,0,.28.83l.3.29-3.3,3.29,1.42,1.42L23,10.41l.29.3A1,1,0,0,0,24,11h.12a1,1,0,0,0,.74-.48l3-5A1,1,0,0,0,27.71,4.29Z" />
  <path d="M11.85,18.15a.48.48,0,0,0-.7,0l-7,7a.48.48,0,0,0,0,.7l2,2a.48.48,0,0,0,.7,0l7-7a.48.48,0,0,0,0-.7Z"/>
</svg>