<svg xmlns="http://www.w3.org/2000/svg">
  <title>Contenu-À échéance</title>
  <path d="M16,8A10,10,0,0,0,6,18a9.91,9.91,0,0,0,2.74,6.85L7.29,26.29a1,1,0,0,0,0,1.42,1,1,0,0,0,1.42,0l1.54-1.54a9.95,9.95,0,0,0,11.5,0l1.54,1.54a1,1,0,0,0,1.42,0,1,1,0,0,0,0-1.42l-1.45-1.44A9.91,9.91,0,0,0,26,18,10,10,0,0,0,16,8Zm1,11a1,1,0,0,1-1,1H12a1,1,0,0,1,0-2h3V14a1,1,0,0,1,2,0Z" />
  <path d="M10.2,6a1,1,0,1,0-.4-2C5.21,4.94,4,8.33,4,10a1,1,0,0,0,2,0S6.05,6.81,10.2,6Z"/>
  <path d="M22.2,4a1,1,0,0,0-.4,2c4.08.82,4.2,3.88,4.2,4a1,1,0,0,0,2,0C28,8.33,26.79,4.94,22.2,4Z"/>
</svg>