<svg xmlns="http://www.w3.org/2000/svg">
  <title>Contenu-Non-visible</title>
  <path d="M22.93,10.48l4.78-4.77a1,1,0,1,0-1.42-1.42L21.18,9.41A11.39,11.39,0,0,0,15.06,8c-6.6.43-10.73,6.92-10.91,7.2a1,1,0,0,0,0,1.12,24.38,24.38,0,0,0,4.93,5.14L4.29,26.29a1,1,0,0,0,0,1.42,1,1,0,0,0,1.42,0l5.13-5.14A10.61,10.61,0,0,0,16,24h.42c6.77-.28,11.22-7.41,11.4-7.72a1,1,0,0,0-.08-1.16A24.88,24.88,0,0,0,22.93,10.48ZM11.5,16A4.51,4.51,0,0,1,16,11.5a4.46,4.46,0,0,1,2.39.7l-1.48,1.48a2.48,2.48,0,0,0-3.23,3.23L12.2,18.39A4.46,4.46,0,0,1,11.5,16ZM16,20.5a4.46,4.46,0,0,1-2.39-.7l1.48-1.48a2.48,2.48,0,0,0,3.23-3.23l1.48-1.48A4.46,4.46,0,0,1,20.5,16,4.51,4.51,0,0,1,16,20.5Z"/>
</svg>