<svg xmlns="http://www.w3.org/2000/svg">
  <title>Produits-Assurances</title>
  <path d="M14.06,6.1C4.13,7.11,4,15.91,4,16a1,1,0,0,0,1,1H9.42C8.14,13.05,11.33,8.82,14.06,6.1Z"/>
  <path d="M16,7c-2.66,2.47-6.16,6.57-4.41,10H15v8.64a1.63,1.63,0,0,1-2.29-.24,1,1,0,1,0-1.42,1.41A3.69,3.69,0,0,0,13.93,28a4.23,4.23,0,0,0,2.78-1.19A1,1,0,0,0,17,26.1V17h3.52C22,14,18.79,9.19,16,7Z"/>
  <path d="M25.46,9.5A14.52,14.52,0,0,0,18,6c3,3,6,8,4.73,11H27a1,1,0,0,0,1-1A8.81,8.81,0,0,0,25.46,9.5Z"/>
  <path d="M15,6V5.33C15,4.6,15.45,4,16,4h0c.55,0,1,.6,1,1.33V6Z"/>
</svg>