<svg xmlns="http://www.w3.org/2000/svg">
  <title>Produits-Carte prépayée</title>
  <rect x="8" y="15" width="4" height="4" rx="1" fill="none"/>
  <path d="M28,9a3,3,0,0,0-3-3H7A3,3,0,0,0,4,9v1H28Z" />
  <path d="M24,14a7,7,0,0,1,4,1.26V12H4v9a3,3,0,0,0,3,3H17.68A7,7,0,0,1,24,14ZM12,18a1,1,0,0,1-1,1H9a1,1,0,0,1-1-1V16a1,1,0,0,1,1-1h2a1,1,0,0,1,1,1Z" />
  <path d="M25.05,20.87a6,6,0,0,0-1.84-.66,4,4,0,0,1-1.29-.44.35.35,0,0,1-.17-.31c0-.08,0-.18.22-.31a1.92,1.92,0,0,1,1-.21,1.51,1.51,0,0,1,.93.25c.31.24,1,.74,1.54.32a.66.66,0,0,0,.1-1,2.46,2.46,0,0,0-1.1-.83,2.54,2.54,0,0,0-.47-.14V16.36a.37.37,0,0,0-.38-.36h-.75a.37.37,0,0,0-.37.36v1.1a3.33,3.33,0,0,0-1.54.48A1.78,1.78,0,0,0,20,19.47a1.69,1.69,0,0,0,.32,1,2.26,2.26,0,0,0,.9.7,6.88,6.88,0,0,0,1.47.47,6.11,6.11,0,0,1,1.14.35,1.05,1.05,0,0,1,.35.23.37.37,0,0,1,.07.25c0,.13,0,.23-.25.36a2,2,0,0,1-1,.22,2.18,2.18,0,0,1-1.15-.26c-.48-.3-1.07-.67-1.58-.25a.63.63,0,0,0-.06.94,2.59,2.59,0,0,0,1.21.83,4.88,4.88,0,0,0,1.05.21v1.11a.37.37,0,0,0,.37.36h.75a.37.37,0,0,0,.38-.36V24.46a3.72,3.72,0,0,0,.48-.11,2.55,2.55,0,0,0,1.13-.73A1.75,1.75,0,0,0,26,22.47,1.84,1.84,0,0,0,25.05,20.87Z"/>
</svg>