<svg xmlns="http://www.w3.org/2000/svg">
  <title>Produits-Depot mobile</title>
  <path d="M13,24H11a1,1,0,0,0,0,2h2a1,1,0,0,0,0-2Z" fill="none"/>
  <path d="M15,12.5a.5.5,0,0,1-.5.5h-1a.5.5,0,0,1-.5-.5v-1a.5.5,0,0,1,.5-.5h1a.5.5,0,0,1,.5.5Z" fill="none"/>
  <path d="M10,17V9a1,1,0,0,1,1-1h7V7a1,1,0,0,0-1-1H7A1,1,0,0,0,6,7V22H18V18H11A1,1,0,0,1,10,17Z" fill="none"/>
  <path d="M27,8H20V7a3,3,0,0,0-3-3H7A3,3,0,0,0,4,7V25a3,3,0,0,0,3,3H17a3,3,0,0,0,3-3V18h7a1,1,0,0,0,1-1V9A1,1,0,0,0,27,8ZM13,26H11a1,1,0,0,1,0-2h2a1,1,0,0,1,0,2Zm5-4H6V7A1,1,0,0,1,7,6H17a1,1,0,0,1,1,1V8H11a1,1,0,0,0-1,1v8a1,1,0,0,0,1,1h7Zm8-6H12V10H26Z" />
  <rect x="13" y="11" width="2" height="2" rx="0.5" />
  <path d="M19,13a1,1,0,0,0,0,2h5a1,1,0,0,0,0-2H19Z"/>
</svg>