<svg xmlns="http://www.w3.org/2000/svg">
  <title>Contenu-Preferences</title>
  <path d="M27.51,14.13l-2.82-1.69,1-2.83a1,1,0,0,0-.23-1l-2.08-2.1a1,1,0,0,0-1.06-.24l-2.7,1L18.39,4.58a1,1,0,0,0-.9-.58H14.54a1,1,0,0,0-.9.58L12.41,7.21l-2.7-1a1,1,0,0,0-1.06.24L6.57,8.57a1,1,0,0,0-.23,1l1,2.83L4.49,14.13A1,1,0,0,0,4,15l0,2a1,1,0,0,0,.48.83l2.83,1.69-1,2.83a1,1,0,0,0,.23,1l2.08,2.1a1,1,0,0,0,1.06.24l2.7-1,1.23,2.63a1,1,0,0,0,.9.58h2.95a1,1,0,0,0,.9-.58l1.23-2.63,2.7,1a1,1,0,0,0,1.06-.24l2.08-2.1a1,1,0,0,0,.23-1l-1-2.83,2.82-1.69A1,1,0,0,0,28,17V15A1,1,0,0,0,27.51,14.13ZM16,20.5A4.5,4.5,0,1,1,20.5,16,4.51,4.51,0,0,1,16,20.5Z"/>
</svg>