<svg xmlns="http://www.w3.org/2000/svg">
  <title>Produits-Retraite</title>
  <path d="M27.53,14.15a1,1,0,0,0-1.38.32l-2.87,4.59A.88.88,0,0,0,23,19H18a1,1,0,0,0-1,1v2H14V14h2.39C17.5,11.69,15.1,8,13,6.31,11,8.21,8.38,11.36,9.69,14H12v8H7.93l-.2,0-.17.07a.49.49,0,0,0-.15.1l-.16.13s0,0,0,0l-3,4a1,1,0,0,0,.2,1.4A1,1,0,0,0,5,28a1,1,0,0,0,.8-.4L8.5,24H21.59l3.7,3.71a1,1,0,0,0,1.42,0,1,1,0,0,0,0-1.42l-3.44-3.43,4.58-7.33A1,1,0,0,0,27.53,14.15ZM19,21h3.07l-.62,1H19Z" />
  <path d="M4.75,14H8.07c-1-3,1.43-6.29,3.48-8.39A7.9,7.9,0,0,0,4,13.23.76.76,0,0,0,4.75,14Z" />
  <path d="M18,14h3.21a.76.76,0,0,0,.75-.77,6.88,6.88,0,0,0-1.91-5A10.7,10.7,0,0,0,14.5,5.54C16.75,7.85,19,11.69,18,14Z" />
  <path d="M13.75,5.54V5c0-.57-.34-1-.75-1h0c-.41,0-.75.46-.75,1v.51Z"/>
</svg>