<svg xmlns="http://www.w3.org/2000/svg">
  <title>Contenu-Dollars</title>
  <path d="M20.1,15.71a11.35,11.35,0,0,0-3.68-1.45,7.63,7.63,0,0,1-2.57-1,.74.74,0,0,1-.36-.68c0-.18,0-.39.46-.68a3.52,3.52,0,0,1,2-.47,2.82,2.82,0,0,1,1.85.56c.63.53,1.94,1.62,3.09.69a1.5,1.5,0,0,0,.21-2.11,5.19,5.19,0,0,0-2.2-1.85,7.53,7.53,0,0,0-.95-.31V5.79A.79.79,0,0,0,17.13,5H15.7a.78.78,0,0,0-.78.79V8.2a6.57,6.57,0,0,0-3.07,1.06A4,4,0,0,0,10,12.63a3.87,3.87,0,0,0,.64,2.23,4.85,4.85,0,0,0,1.8,1.54,14.15,14.15,0,0,0,2.93,1,12.56,12.56,0,0,1,2.28.76,2,2,0,0,1,.71.52,1,1,0,0,1,.14.55A.88.88,0,0,1,18,20a3.65,3.65,0,0,1-2,.5A4,4,0,0,1,13.67,20c-.95-.66-2.13-1.48-3.15-.55a1.48,1.48,0,0,0-.12,2.07,5.12,5.12,0,0,0,2.41,1.82,8.33,8.33,0,0,0,2.11.47v2.44a.78.78,0,0,0,.78.79h1.43a.79.79,0,0,0,.79-.79V23.62a9,9,0,0,0,1-.26,5.11,5.11,0,0,0,2.26-1.6A4,4,0,0,0,22,19.24,4.16,4.16,0,0,0,20.1,15.71Z"/>
</svg>