<svg xmlns="http://www.w3.org/2000/svg">
  <title>Contenu-Rendez-vous</title>
  <path d="M6,25a1,1,0,0,0,1,1H25a1,1,0,0,0,1-1V12H6Z" fill="none"/>
  <path d="M6,25a1,1,0,0,0,1,1H25a1,1,0,0,0,1-1V12H6Z" fill="none"/>
  <path d="M25,6H21.5V5.5a1.5,1.5,0,0,0-3,0V6h-5V5.5a1.5,1.5,0,0,0-3,0V6H7A3,3,0,0,0,4,9V25a3,3,0,0,0,3,3H25a3,3,0,0,0,3-3V9A3,3,0,0,0,25,6Zm-5.5-.5a.5.5,0,0,1,1,0v3a.5.5,0,0,1-1,0Zm-8,.5V5.5a.5.5,0,0,1,1,0v3a.5.5,0,0,1-1,0ZM26,25a1,1,0,0,1-1,1H7a1,1,0,0,1-1-1V14H26Z" />
  <path d="M20,24h2a2,2,0,0,0,2-2V20a2,2,0,0,0-2-2H20a2,2,0,0,0-2,2v2A2,2,0,0,0,20,24Zm0-4h2v2H20Z" />
</svg>