<svg xmlns="http://www.w3.org/2000/svg">
  <title>Produits-Epargne à terme</title>
  <path d="M24,15a6.7,6.7,0,0,0-.79.05,10.07,10.07,0,0,0-5-5.15L19,5.16a1,1,0,0,0-.44-1,1,1,0,0,0-1.09,0S15,5.69,13.61,4.63A2.9,2.9,0,0,0,11.33,4,5.58,5.58,0,0,0,8.16,6.4a1,1,0,0,0-.06,1l1.33,2.69A10,10,0,0,0,4,19v4a5,5,0,0,0,5,5H19a5,5,0,0,0,2.38-.61A5.67,5.67,0,0,0,24,28c2.32,0,4-1.05,4-2.5v-8C28,16.05,26.32,15,24,15Zm-7.56,5.86a2.17,2.17,0,0,1-.94.65,2.62,2.62,0,0,1-.4.11v1.06a.31.31,0,0,1-.31.32h-.63a.31.31,0,0,1-.31-.32v-1a4,4,0,0,1-.88-.19,2.14,2.14,0,0,1-1-.75.59.59,0,0,1,0-.85c.42-.38.92,0,1.31.23a1.66,1.66,0,0,0,1,.24,1.53,1.53,0,0,0,.85-.21.35.35,0,0,0,.2-.32.34.34,0,0,0-.06-.22A.7.7,0,0,0,15,19.4a5,5,0,0,0-1-.32,5.28,5.28,0,0,1-1.22-.42,1.9,1.9,0,0,1-.75-.63,1.55,1.55,0,0,1-.27-.91,1.63,1.63,0,0,1,.77-1.38,2.7,2.7,0,0,1,1.28-.43v-1a.31.31,0,0,1,.31-.32h.63a.31.31,0,0,1,.31.32v1.09a3.1,3.1,0,0,1,.4.13,2,2,0,0,1,.91.75.61.61,0,0,1-.09.87c-.47.38-1-.07-1.28-.29a1.2,1.2,0,0,0-.77-.23,1.5,1.5,0,0,0-.83.2c-.17.11-.18.2-.18.27a.3.3,0,0,0,.14.28,3.15,3.15,0,0,0,1.07.4,4.8,4.8,0,0,1,1.54.59,1.69,1.69,0,0,1,.79,1.45A1.62,1.62,0,0,1,16.44,20.86Zm9.5-3.36A3.29,3.29,0,0,1,24,18a3.28,3.28,0,0,1-1.92-.49l.3-.2A3.92,3.92,0,0,1,24,17,3.29,3.29,0,0,1,25.94,17.5ZM26,25.44A2.9,2.9,0,0,1,24,26a3.59,3.59,0,0,1-2-.48V23.69A6.26,6.26,0,0,0,24,24a6.12,6.12,0,0,0,2-.32Zm0-4A2.9,2.9,0,0,1,24,22a3.59,3.59,0,0,1-2-.48V19.69A6.26,6.26,0,0,0,24,20a6.12,6.12,0,0,0,2-.32Z" />
</svg>