<svg xmlns="http://www.w3.org/2000/svg">
  <title>Produits-Bonidollars</title>
  <circle cx="18.5" cy="7.5" r="1.5" fill="none"/>
  <circle cx="13.5" cy="7.5" r="1.5" fill="none"/>
  <path d="M5,16v8a3,3,0,0,0,3,3h7V16Z"/>
  <path d="M17,27h7a3,3,0,0,0,3-3V16H17Z"/>
  <path d="M15,9h2v5H27.81A3,3,0,0,0,28,13V12a3,3,0,0,0-3-3H21.65A3.45,3.45,0,0,0,22,7.5a3.49,3.49,0,0,0-6-2.44A3.49,3.49,0,0,0,10,7.5,3.45,3.45,0,0,0,10.35,9H7a3,3,0,0,0-3,3v1a3,3,0,0,0,.19,1H15Zm3.5-3A1.5,1.5,0,1,1,17,7.5,1.5,1.5,0,0,1,18.5,6Zm-5,3A1.5,1.5,0,1,1,15,7.5,1.5,1.5,0,0,1,13.5,9Z"/>
</svg>