<svg xmlns="http://www.w3.org/2000/svg">
  <title>Contenu-Concours</title>
  <path d="M23,26H9a1,1,0,0,0,0,2H23a1,1,0,0,0,0-2Z" />
  <path d="M27.78,7.74a1,1,0,0,0-1-.76H23V5a1,1,0,0,0-1-1H10A1,1,0,0,0,9,5V7H5.22a1.05,1.05,0,0,0-1,.76c0,.14-.89,3.32.76,5.48A5.16,5.16,0,0,0,9.31,15,7,7,0,0,0,15,19.92.24.24,0,0,0,15,20v2H11a1,1,0,0,0,0,2H21a1,1,0,0,0,0-2H17V20a.24.24,0,0,0,0-.08A7,7,0,0,0,22.71,15a.75.75,0,0,0,.16,0A4.9,4.9,0,0,0,27,13.27C28.64,11.13,27.81,7.88,27.78,7.74ZM6.09,9H9v3.89a3.07,3.07,0,0,1-2.37-1A4.23,4.23,0,0,1,6.09,9Zm19.28,3A2.85,2.85,0,0,1,23,13V9h2.94A4.36,4.36,0,0,1,25.37,12Z"/>
</svg>