<svg xmlns="http://www.w3.org/2000/svg">
  <title>Contenu-Chèque</title>
  <path d="M26,11.65H24a1,1,0,0,0,0,2h2V25H6V13.7h4a1,1,0,0,0,0-2H6a2,2,0,0,0-2,2V25A2,2,0,0,0,6,27H26A2,2,0,0,0,28,25V13.7A2,2,0,0,0,26,11.65Z" />
  <path d="M22.72,14.72h-.6a.29.29,0,0,0-.3.29v.9a2.75,2.75,0,0,0-1.23.4,1.45,1.45,0,0,0-.49,2.08,2,2,0,0,0,.73.57,5.63,5.63,0,0,0,1.17.39,4.78,4.78,0,0,1,.91.28.67.67,0,0,1,.28.19.33.33,0,0,1,.06.21c0,.1,0,.19-.2.29a1.57,1.57,0,0,1-.81.18,1.72,1.72,0,0,1-.92-.21c-.38-.25-.85-.55-1.26-.21a.52.52,0,0,0,0,.77,2,2,0,0,0,1,.68,3.57,3.57,0,0,0,.84.17v.91a.29.29,0,0,0,.3.3h.6a.3.3,0,0,0,.3-.3v-1a2.36,2.36,0,0,0,.38-.1,2,2,0,0,0,.9-.59,1.42,1.42,0,0,0,.35-.94,1.51,1.51,0,0,0-.76-1.31,4.6,4.6,0,0,0-1.47-.54,3.25,3.25,0,0,1-1-.36.28.28,0,0,1-.14-.26c0-.06,0-.14.18-.25a1.55,1.55,0,0,1,.79-.17,1.16,1.16,0,0,1,.74.2c.25.2.77.61,1.23.26a.54.54,0,0,0,.09-.79,2.09,2.09,0,0,0-.88-.68c-.12-.05-.25-.08-.38-.12V15A.3.3,0,0,0,22.72,14.72Z" />
  <path d="M9,20.86a1,1,0,0,0,0,2.05h8a1,1,0,0,0,0-2.05Z" />
  <path d="M10.65,18.15a.47.47,0,0,0,.35.15l.16,0,3.27-1.12a.82.82,0,0,0,.2-.12l5.64-5.78-2.89-3-5.64,5.78a.41.41,0,0,0-.12.2l-1.09,3.35A.5.5,0,0,0,10.65,18.15Z" />
  <path d="M23.35,8.11a.52.52,0,0,0,0-.73L21.17,5.15a.5.5,0,0,0-.71,0L18.09,7.58,21,10.53Z" />
</svg>