<svg xmlns="http://www.w3.org/2000/svg">
  <title>Contenu-Clavardage</title>
  <path d="M25.32,6H12.68A2.75,2.75,0,0,0,10,8.82V12H6.37A2.51,2.51,0,0,0,4,14.64v5.72A2.51,2.51,0,0,0,6.37,23h.7l1,2.39A1,1,0,0,0,9,26H9a1,1,0,0,0,.9-.56L11.1,23h4.53A2.51,2.51,0,0,0,18,20.36V18h1.69l1.44,2.5A1,1,0,0,0,22,21h0a1,1,0,0,0,.87-.52L24.23,18h1.09A2.75,2.75,0,0,0,28,15.18V8.82A2.75,2.75,0,0,0,25.32,6ZM16,20.36c0,.39-.22.64-.37.64H10.47a1,1,0,0,0-.89.56l-.51,1-.41-1A1,1,0,0,0,7.74,21H6.37c-.15,0-.37-.25-.37-.64V14.64c0-.39.22-.64.37-.64H10v1c0,1,.75,2.72,3.43,2.95A3.45,3.45,0,0,0,14,18h2Z"/>
</svg>