<svg xmlns="http://www.w3.org/2000/svg">
  <title>Contenu-Hameçonnage</title>
  <circle cx="16" cy="23" r="1.5" />
  <path d="M6,25a1,1,0,0,0,1,1H25a1,1,0,0,0,1-1V11H6Z" fill="none"/>
  <path d="M25,4H7A3,3,0,0,0,4,7V25a3,3,0,0,0,3,3H25a3,3,0,0,0,3-3V7A3,3,0,0,0,25,4ZM13,7a1,1,0,1,1-1,1A1,1,0,0,1,13,7ZM9,7A1,1,0,1,1,8,8,1,1,0,0,1,9,7ZM26,25a1,1,0,0,1-1,1H7a1,1,0,0,1-1-1V11H26Z" />
  <path d="M6,25a1,1,0,0,0,1,1H25a1,1,0,0,0,1-1V11H6Z" fill="none"/>
  <path d="M16,20a1,1,0,0,0,1-1V15a1,1,0,0,0-2,0v4A1,1,0,0,0,16,20Z" />
  <circle cx="16" cy="23" r="1.5" />
  <path d="M25,4H7A3,3,0,0,0,4,7V25a3,3,0,0,0,3,3H25a3,3,0,0,0,3-3V7A3,3,0,0,0,25,4ZM13,7a1,1,0,1,1-1,1A1,1,0,0,1,13,7ZM9,7A1,1,0,1,1,8,8,1,1,0,0,1,9,7ZM26,25a1,1,0,0,1-1,1H7a1,1,0,0,1-1-1V11H26Z"/>
</svg>