<svg xmlns="http://www.w3.org/2000/svg">
  <title>01-04-Contenu-Par courriel</title>
  <path d="M28,16A12,12,0,1,0,16,28a10.07,10.07,0,0,0,4.4-1,1,1,0,1,0-.8-1.83A8.32,8.32,0,0,1,16,26,10,10,0,1,1,26,16a7.49,7.49,0,0,1-1.88,5,2.35,2.35,0,0,1-1.8.42,1.79,1.79,0,0,1-.92-.91V11.6a1,1,0,0,0-1-1,1,1,0,0,0-1,1A5.21,5.21,0,0,0,16,10.29,5.57,5.57,0,0,0,10.6,16,5.57,5.57,0,0,0,16,21.71a5.19,5.19,0,0,0,3.4-1.28v.28a.88.88,0,0,0,.06.33,3.86,3.86,0,0,0,2.2,2.27,3.46,3.46,0,0,0,1.06.17,4.83,4.83,0,0,0,2.57-.85h.05a1.36,1.36,0,0,0,.12-.12,1.79,1.79,0,0,0,.14-.13A9.55,9.55,0,0,0,28,16ZM16,19.71A3.56,3.56,0,0,1,12.6,16,3.56,3.56,0,0,1,16,12.29,3.56,3.56,0,0,1,19.4,16,3.56,3.56,0,0,1,16,19.71Z" />
</svg>