<svg xmlns="http://www.w3.org/2000/svg">
  <title>Contenu-Factures</title>
  <path d="M24,4H8A3,3,0,0,0,5,7V27a1,1,0,0,0,.53.88,1,1,0,0,0,1-.05l2.52-1.68,3.48,1.74a1,1,0,0,0,1-.06l2.52-1.68,3.48,1.74A1,1,0,0,0,20,28a1,1,0,0,0,.55-.17L23,26.2l2.45,1.63a1,1,0,0,0,1,.05A1,1,0,0,0,27,27V7A3,3,0,0,0,24,4ZM13.92,9.94a3.33,3.33,0,0,1,1.54-.48V8.36A.37.37,0,0,1,15.83,8h.75a.37.37,0,0,1,.38.36V9.57a2.54,2.54,0,0,1,.47.14,2.46,2.46,0,0,1,1.1.83.66.66,0,0,1-.1,1c-.57.42-1.23-.08-1.54-.32a1.51,1.51,0,0,0-.93-.25,1.92,1.92,0,0,0-1,.21c-.21.13-.22.23-.22.31a.35.35,0,0,0,.17.31,4,4,0,0,0,1.29.44,6,6,0,0,1,1.84.66,1.84,1.84,0,0,1,.95,1.6,1.75,1.75,0,0,1-.43,1.15,2.55,2.55,0,0,1-1.13.73,3.72,3.72,0,0,1-.48.11v1.18a.37.37,0,0,1-.38.36h-.75a.37.37,0,0,1-.37-.36V16.53a4.88,4.88,0,0,1-1.05-.21,2.59,2.59,0,0,1-1.21-.83.63.63,0,0,1,.06-.94c.51-.42,1.1-.05,1.58.25a2.18,2.18,0,0,0,1.15.26,2,2,0,0,0,1-.22c.21-.13.25-.23.25-.36a.37.37,0,0,0-.07-.25,1.05,1.05,0,0,0-.35-.23,6.11,6.11,0,0,0-1.14-.35,6.88,6.88,0,0,1-1.47-.47,2.26,2.26,0,0,1-.9-.7,1.69,1.69,0,0,1-.32-1A1.78,1.78,0,0,1,13.92,9.94ZM21,22H11a1,1,0,0,1,0-2H21a1,1,0,0,1,0,2Z"/>
</svg>