<svg xmlns="http://www.w3.org/2000/svg">
  <title>Contenu-Légal</title>
  <path d="M27.69,25.29l-11-10.48,1.17-1.11.27.26a1.66,1.66,0,0,0,2.27,0l.73-.7a1.51,1.51,0,0,0,.47-1.09,1.49,1.49,0,0,0-.47-1.08L14.23,4.45a1.66,1.66,0,0,0-2.27,0l-.73.7a1.51,1.51,0,0,0-.47,1.09,1.49,1.49,0,0,0,.47,1.08l.27.27-3.76,3.6-.27-.27a1.68,1.68,0,0,0-2.27,0l-.73.71A1.48,1.48,0,0,0,4,12.71a1.51,1.51,0,0,0,.47,1.09l6.93,6.64a1.68,1.68,0,0,0,2.27,0l.73-.71a1.48,1.48,0,0,0,0-2.17l-.27-.26,1.12-1.08,11,10.49A1.08,1.08,0,0,0,27,27a1.1,1.1,0,0,0,.74-.29A1,1,0,0,0,27.69,25.29Z" />
  <path d="M15.48,26h-1a1,1,0,1,0,0-2H6.09a1,1,0,1,0,0,2h-1a1,1,0,1,0,0,2H15.48a1,1,0,1,0,0-2Z" />
</svg>