<svg xmlns="http://www.w3.org/2000/svg">
  <title>Contenu-Calculateur</title>
  <path d="M23,4H9A3,3,0,0,0,6,7V25a3,3,0,0,0,3,3H23a3,3,0,0,0,3-3V7A3,3,0,0,0,23,4ZM10,8a1,1,0,0,1,1-1H21a1,1,0,0,1,1,1v3a1,1,0,0,1-1,1H11a1,1,0,0,1-1-1Zm1.5,17h-1a1,1,0,0,1,0-2h1a1,1,0,0,1,0,2Zm0-4h-1a1,1,0,0,1,0-2h1a1,1,0,0,1,0,2Zm0-4h-1a1,1,0,0,1,0-2h1a1,1,0,0,1,0,2Zm5,8h-1a1,1,0,0,1,0-2h1a1,1,0,0,1,0,2Zm0-4h-1a1,1,0,0,1,0-2h1a1,1,0,0,1,0,2Zm0-4h-1a1,1,0,0,1,0-2h1a1,1,0,0,1,0,2ZM22,24a1,1,0,0,1-2,0V20a1,1,0,0,1,2,0Zm-.5-7h-1a1,1,0,0,1,0-2h1a1,1,0,0,1,0,2Z"/>
</svg>