<svg xmlns="http://www.w3.org/2000/svg">
<title>Media Sociaux-Instagram</title>
  <path d="M16,6.2c3.2,0,3.6,0,4.8.1a6.49,6.49,0,0,1,2.2.4,3.39,3.39,0,0,1,1.4.9A3.39,3.39,0,0,1,25.3,9a5,5,0,0,1,.4,2.2c.1,1.3.1,1.6.1,4.8s0,3.6-.1,4.8a6.49,6.49,0,0,1-.4,2.2A3.92,3.92,0,0,1,23,25.3a5,5,0,0,1-2.2.4c-1.3.1-1.6.1-4.8.1s-3.6,0-4.8-.1A6.49,6.49,0,0,1,9,25.3a3.39,3.39,0,0,1-1.4-.9A3.39,3.39,0,0,1,6.7,23a5,5,0,0,1-.4-2.2c-.1-1.3-.1-1.6-.1-4.8s0-3.6.1-4.8a8.33,8.33,0,0,1,.3-2.3,3.39,3.39,0,0,1,.9-1.4,3.39,3.39,0,0,1,1.4-.9,12.43,12.43,0,0,1,2.3-.4H16M16,4c-3.3,0-3.7,0-4.9.1a8.13,8.13,0,0,0-3,.5A6.43,6.43,0,0,0,4.6,8.1a8.13,8.13,0,0,0-.5,3C4,12.3,4,12.7,4,16s0,3.7.1,4.9a9.77,9.77,0,0,0,.6,2.9A4.6,4.6,0,0,0,6,26a5.53,5.53,0,0,0,2.1,1.4A9.77,9.77,0,0,0,11,28h5c3.3,0,3.7,0,4.9-.1a9.77,9.77,0,0,0,2.9-.6,4.87,4.87,0,0,0,2.1-1.4,7,7,0,0,0,1.4-2.1,9.77,9.77,0,0,0,.6-2.9c.1-1.2.1-1.6.1-4.9s0-3.7-.1-4.9a9.77,9.77,0,0,0-.6-2.9A4.6,4.6,0,0,0,26,6a5.53,5.53,0,0,0-2.1-1.4A9.77,9.77,0,0,0,21,4Z" />
  <path d="M16,9.8A6.2,6.2,0,1,0,22.2,16,6.23,6.23,0,0,0,16,9.8ZM16,20a4,4,0,1,1,4-4A4,4,0,0,1,16,20Z" />
  <circle cx="22.4" cy="9.6" r="1.4"/>
</svg>