<svg xmlns="http://www.w3.org/2000/svg">
  <title>Produits-Paiement préautorisé</title>
  <path d="M6,25a1,1,0,0,0,1,1H25a1,1,0,0,0,1-1V12H6Z" fill="none"/>
  <path d="M6,25a1,1,0,0,0,1,1H25a1,1,0,0,0,1-1V12H6Z" fill="none"/>
  <path d="M25,6H21.5V5.5a1.5,1.5,0,0,0-3,0V6h-5V5.5a1.5,1.5,0,0,0-3,0V6H7A3,3,0,0,0,4,9V25a3,3,0,0,0,3,3H25a3,3,0,0,0,3-3V9A3,3,0,0,0,25,6Zm-5.5-.5a.5.5,0,0,1,1,0v3a.5.5,0,0,1-1,0Zm-8,.5V5.5a.5.5,0,0,1,1,0v3a.5.5,0,0,1-1,0ZM26,25a1,1,0,0,1-1,1H7a1,1,0,0,1-1-1V14H26Z" />
  <path d="M14.22,20.18a6.88,6.88,0,0,0,1.47.47,6.11,6.11,0,0,1,1.14.35,1.05,1.05,0,0,1,.35.23.37.37,0,0,1,.07.25c0,.13,0,.23-.25.36a2,2,0,0,1-1,.22,2.18,2.18,0,0,1-1.15-.26c-.48-.3-1.07-.67-1.58-.25a.63.63,0,0,0-.06.94,2.59,2.59,0,0,0,1.21.83,4.88,4.88,0,0,0,1.05.21v1.11a.37.37,0,0,0,.37.36h.75a.37.37,0,0,0,.38-.36V23.46a3.72,3.72,0,0,0,.48-.11,2.55,2.55,0,0,0,1.13-.73A1.75,1.75,0,0,0,19,21.47a1.84,1.84,0,0,0-.95-1.6,6,6,0,0,0-1.84-.66,4,4,0,0,1-1.29-.44.35.35,0,0,1-.17-.31c0-.08,0-.18.22-.31a1.92,1.92,0,0,1,1-.21,1.51,1.51,0,0,1,.93.25c.31.24,1,.74,1.54.32a.66.66,0,0,0,.1-1,2.46,2.46,0,0,0-1.1-.83,2.54,2.54,0,0,0-.47-.14V15.36a.37.37,0,0,0-.38-.36h-.75a.37.37,0,0,0-.37.36v1.1a3.33,3.33,0,0,0-1.54.48A1.78,1.78,0,0,0,13,18.47a1.69,1.69,0,0,0,.32,1A2.26,2.26,0,0,0,14.22,20.18Z" />
</svg>