<svg xmlns="http://www.w3.org/2000/svg">
  <title>Action-Copier</title>
  <path d="M25.12,4H12.88A2.89,2.89,0,0,0,10,6.89v1A.76.76,0,0,0,10,8H7a3,3,0,0,0-3,3V25a3,3,0,0,0,3,3H19a3,3,0,0,0,3-3V23.94a.94.94,0,0,0,.29.06h2.83A2.89,2.89,0,0,0,28,21.11V6.89A2.89,2.89,0,0,0,25.12,4ZM9,12h4a1,1,0,0,1,0,2H9a1,1,0,0,1,0-2Zm8,12H9a1,1,0,0,1,0-2h8a1,1,0,0,1,0,2Zm0-5H9a1,1,0,0,1,0-2h8a1,1,0,0,1,0,2Zm9,2.11a.89.89,0,0,1-.88.89H22.29a.94.94,0,0,0-.29.06V11a3,3,0,0,0-3-3H12a.76.76,0,0,0,0-.16v-1A.89.89,0,0,1,12.88,6H25.12a.89.89,0,0,1,.88.89Z"/>
</svg>