<svg xmlns="http://www.w3.org/2000/svg">
  <title>Produits-Capital Régional</title>
  <path d="M27,14.89a3.45,3.45,0,0,0-1.45-2.45,3.65,3.65,0,0,0-3.34-.23c-3,1.32-4.55,6.58-4.61,6.8a.38.38,0,0,0,0,.15h-1c.58-1.37,3.09-7.35,3.09-9.34,0-3.37-3.24-5.55-3.38-5.64L16,4l-.28.18c-.14.09-3.37,2.27-3.37,5.64a12.58,12.58,0,0,0,1.36,4.54,32.67,32.67,0,0,1,1.75,4.8h-1a.38.38,0,0,0,0-.15c-.06-.22-1.59-5.48-4.61-6.8a3.66,3.66,0,0,0-3.37.25A3.45,3.45,0,0,0,5,14.89c-.15,1.45.62,3,2.28,4.66a.52.52,0,0,0,.35.14.51.51,0,0,0,.5-.64s-.2-1.15.33-1.52c.32-.22,1.38-.47,4.53,1.63h-.17a1,1,0,1,0,0,2.08h1.64a3.26,3.26,0,0,1-1.86,2.63.54.54,0,0,0-.29.48c0,.07,0,1.45,2.29,1.57l.9,1.8A.53.53,0,0,0,16,28a.51.51,0,0,0,.45-.28l.91-1.8c2.26-.12,2.29-1.5,2.29-1.57a.56.56,0,0,0-.29-.48,3.14,3.14,0,0,1-1.81-2.63h1.59a1,1,0,0,0,0-2.08H19c3.14-2.1,4.21-1.85,4.53-1.63.53.37.33,1.51.33,1.53a.52.52,0,0,0,.25.57.5.5,0,0,0,.6-.08C26.36,17.9,27.13,16.34,27,14.89Z"/>
</svg>