<svg xmlns="http://www.w3.org/2000/svg">
  <title>Contenu-Assistance</title>
  <path d="M11,15.42a32.09,32.09,0,0,1-2.59-2.49,1.51,1.51,0,0,0-2.79.76c0,.78,0,1.55,0,2.33a4.9,4.9,0,0,1,0,1.91c-.54,1.4,1.54,2.55,2.5,1.46a2.65,2.65,0,0,1,.68-.57,1.5,1.5,0,0,0-1.52-2.59,5.13,5.13,0,0,0-1.28,1l2.51,1.46a5.48,5.48,0,0,0,.16-2.35,26.83,26.83,0,0,1,0-2.69l-2.8.75a37.3,37.3,0,0,0,3.06,3.1c1.32,1.42,3.43-.71,2.12-2.12Z"/>
<path d="M26.9,11a12.05,12.05,0,0,0-1.08-1.88,11.81,11.81,0,0,0-2.95-3A12.05,12.05,0,0,0,21,5.1a11.87,11.87,0,0,0-10,0A12.05,12.05,0,0,0,9.13,6.18a11.81,11.81,0,0,0-3,3A12.05,12.05,0,0,0,5.1,11a11.87,11.87,0,0,0,0,10,12.05,12.05,0,0,0,1.08,1.88,11.81,11.81,0,0,0,3,2.95A12.05,12.05,0,0,0,11,26.9a11.87,11.87,0,0,0,10,0,12.05,12.05,0,0,0,1.88-1.08,11.81,11.81,0,0,0,2.95-2.95A12.05,12.05,0,0,0,26.9,21a11.87,11.87,0,0,0,0-10ZM10.63,7.68l2.68,2.68a6.21,6.21,0,0,0-3,3L7.68,10.63A9.88,9.88,0,0,1,10.63,7.68Zm0,16.64a9.88,9.88,0,0,1-3-2.95l2.68-2.68a6.21,6.21,0,0,0,3,2.95ZM16,20.17A4.25,4.25,0,0,1,14.93,20,4.19,4.19,0,0,1,12,17.07a3.89,3.89,0,0,1,0-2.14A4.19,4.19,0,0,1,14.93,12a3.89,3.89,0,0,1,2.14,0A4.19,4.19,0,0,1,20,14.93a3.89,3.89,0,0,1,0,2.14A4.19,4.19,0,0,1,17.07,20,4.25,4.25,0,0,1,16,20.17Zm5.37,4.15-2.68-2.68a6.21,6.21,0,0,0,2.95-2.95l2.68,2.68A9.88,9.88,0,0,1,21.37,24.32Zm.27-11a6.21,6.21,0,0,0-2.95-3l2.68-2.68a9.88,9.88,0,0,1,2.95,3Z"/>
</svg>