<svg xmlns="http://www.w3.org/2000/svg">
  <title>Produits-Dons et commandites</title>
  <path d="M25,15l-7,5H12c-1,0-1-1,0-1h5a2.09,2.09,0,0,0,0-3H11L5,20v7H6l4-3h9l8-7A1.93,1.93,0,0,0,25,15Z" />
  <path d="M10.84,13.92a1,1,0,0,0,.53-1.31A4.56,4.56,0,0,1,11,10.79,4.9,4.9,0,0,1,16,6a4.9,4.9,0,0,1,5,4.79,4.56,4.56,0,0,1-.37,1.82,1,1,0,0,0,.53,1.31,1,1,0,0,0,.39.08,1,1,0,0,0,.92-.61,6.61,6.61,0,0,0,.53-2.6A6.91,6.91,0,0,0,16,4a6.91,6.91,0,0,0-7,6.79,6.61,6.61,0,0,0,.53,2.6A1,1,0,0,0,10.84,13.92Z" />
  <path d="M15.89,14.5h.5a.25.25,0,0,0,.25-.25v-.83a1.67,1.67,0,0,0,.32-.08,1.57,1.57,0,0,0,.75-.51A1.23,1.23,0,0,0,18,12a1.31,1.31,0,0,0-.63-1.12,3.56,3.56,0,0,0-1.23-.46,2.8,2.8,0,0,1-.86-.31.25.25,0,0,1-.12-.22c0-.05,0-.12.16-.21A1.18,1.18,0,0,1,16,9.56a1,1,0,0,1,.62.18c.21.16.65.51,1,.21a.46.46,0,0,0,.07-.67A1.79,1.79,0,0,0,17,8.69a1.68,1.68,0,0,0-.32-.09V7.75a.25.25,0,0,0-.25-.25h-.5a.25.25,0,0,0-.25.25v.77a2.17,2.17,0,0,0-1,.34A1.23,1.23,0,0,0,14,9.93a1.21,1.21,0,0,0,.21.71,1.76,1.76,0,0,0,.6.49,4.87,4.87,0,0,0,1,.32,4.52,4.52,0,0,1,.76.25.71.71,0,0,1,.24.16.3.3,0,0,1,0,.18.29.29,0,0,1-.16.25,1.32,1.32,0,0,1-.68.15,1.44,1.44,0,0,1-.77-.18c-.31-.21-.71-.47-1.05-.18a.47.47,0,0,0,0,.66,1.7,1.7,0,0,0,.81.58,2.56,2.56,0,0,0,.7.15v.78A.25.25,0,0,0,15.89,14.5Z"/>
</svg>