<svg xmlns="http://www.w3.org/2000/svg">
<title>Contenu-Calendrier</title>
  <rect x="9" y="16" width="2" height="3" rx="1"/>
  <rect x="15" y="16" width="2" height="3" rx="1"/>
  <rect x="21" y="16" width="2" height="3" rx="1"/>
  <rect x="9" y="21" width="2" height="3" rx="1"/>
  <rect x="15" y="21" width="2" height="3" rx="1"/>
  <rect x="21" y="21" width="2" height="3" rx="1"/>
  <path d="M6,25a1,1,0,0,0,1,1H25a1,1,0,0,0,1-1V12H6Z" fill="none"/>
  <path d="M6,25a1,1,0,0,0,1,1H25a1,1,0,0,0,1-1V12H6Z" fill="none"/>
  <path d="M25,6H21.5V5.5a1.5,1.5,0,0,0-3,0V6h-5V5.5a1.5,1.5,0,0,0-3,0V6H7A3,3,0,0,0,4,9V25a3,3,0,0,0,3,3H25a3,3,0,0,0,3-3V9A3,3,0,0,0,25,6Zm-5.5-.5a.5.5,0,0,1,1,0v3a.5.5,0,0,1-1,0Zm-8,.5V5.5a.5.5,0,0,1,1,0v3a.5.5,0,0,1-1,0ZM26,25a1,1,0,0,1-1,1H7a1,1,0,0,1-1-1V14H26Z"/>
</svg>