<svg xmlns="http://www.w3.org/2000/svg">
  <title>Contenu-Argent</title>
  <path d="M27,7H8A1,1,0,0,0,7,8v3H5a1,1,0,0,0-1,1V24a1,1,0,0,0,1,1H23a1,1,0,0,0,1-1V20.94l.15,0H27a1,1,0,0,0,1-1V8A1,1,0,0,0,27,7ZM16.05,20.1a2.1,2.1,0,0,1-.9.58c-.12,0-.25.06-.38.09v.94a.3.3,0,0,1-.3.29h-.6a.29.29,0,0,1-.3-.29v-.89a3.13,3.13,0,0,1-.84-.17,2,2,0,0,1-1-.66.5.5,0,0,1,.05-.75c.41-.34.88,0,1.26.2a1.72,1.72,0,0,0,.92.21,1.57,1.57,0,0,0,.81-.18c.17-.1.2-.19.2-.29a.27.27,0,0,0-.06-.19.59.59,0,0,0-.28-.19,4.78,4.78,0,0,0-.91-.28,5.16,5.16,0,0,1-1.17-.38,2,2,0,0,1-.73-.55,1.44,1.44,0,0,1-.25-.82,1.43,1.43,0,0,1,.74-1.22,2.88,2.88,0,0,1,1.23-.39v-.87a.29.29,0,0,1,.3-.29h.6a.3.3,0,0,1,.3.29v1c.13,0,.26.06.38.11A2.15,2.15,0,0,1,16,16a.52.52,0,0,1-.09.77c-.46.34-1-.05-1.23-.25a1.23,1.23,0,0,0-.74-.2,1.55,1.55,0,0,0-.79.17c-.17.1-.18.18-.18.25a.28.28,0,0,0,.14.25,3.71,3.71,0,0,0,1,.35,4.62,4.62,0,0,1,1.47.53,1.46,1.46,0,0,1,.76,1.28A1.39,1.39,0,0,1,16.05,20.1ZM26,19H24.15l-.15,0V12a1,1,0,0,0-1-1H9V9H26Z" />
</svg>