<svg xmlns="http://www.w3.org/2000/svg">
  <title>Contenu-Conjoints</title>
  <path d="M12,18a5,5,0,1,0-5-5A5,5,0,0,0,12,18Zm3-5a3,3,0,0,1-5.82,1A3.86,3.86,0,0,0,13,10.18,3,3,0,0,1,15,13Z" />
  <path d="M21.5,14A4.5,4.5,0,1,0,17,9.5,4.51,4.51,0,0,0,21.5,14Zm0-7A2.5,2.5,0,1,1,19,9.5,2.5,2.5,0,0,1,21.5,7Z" />
  <path d="M23.33,16H19.67A4.57,4.57,0,0,0,15,20.05a5.52,5.52,0,0,0-.71-.05H9.67A5.49,5.49,0,0,0,4,25.29V26a1,1,0,0,0,1,1H19a1,1,0,0,0,1-1v-.71A5,5,0,0,0,18.76,22H27a1,1,0,0,0,1-1v-.57A4.56,4.56,0,0,0,23.33,16Z"/>
</svg>