<svg xmlns="http://www.w3.org/2000/svg">
  <title>Produits-Carte perdue</title>
  <rect x="8" y="15" width="4" height="4" rx="1" fill="none"/>
  <path d="M28,9a3,3,0,0,0-3-3H7A3,3,0,0,0,4,9v1H28Z" />
  <path d="M24,16a7,7,0,0,1,4,1.26V12H4v9a3,3,0,0,0,3,3H17.08A6.63,6.63,0,0,1,17,23,7,7,0,0,1,24,16ZM12,18a1,1,0,0,1-1,1H9a1,1,0,0,1-1-1V16a1,1,0,0,1,1-1h2a1,1,0,0,1,1,1Z" />
  <path d="M25.41,23l2.3-2.29a1,1,0,0,0-1.42-1.42L24,21.59l-2.29-2.3a1,1,0,0,0-1.42,1.42L22.59,23l-2.3,2.29a1,1,0,0,0,0,1.42,1,1,0,0,0,1.42,0L24,24.41l2.29,2.3a1,1,0,0,0,1.42,0,1,1,0,0,0,0-1.42Z"/>
</svg>