<svg xmlns="http://www.w3.org/2000/svg">
  <title>Produits-Marges crédit</title>
  <path d="M27,8H22.81L22,4.75A1,1,0,0,0,20.91,4l-11,1a1,1,0,0,0-.75.45,1.07,1.07,0,0,0-.11.87L10,9.15,4.84,10a1,1,0,0,0-.76.59,1,1,0,0,0,.09,1L14,26.3V27a1,1,0,0,0,1,1H27a1,1,0,0,0,1-1V9A1,1,0,0,0,27,8ZM20.25,6.07,20.75,8H15a1,1,0,0,0-1,1v5.84l-2.65-8ZM6.69,11.73l4-.66L14,21.16V22.7ZM23.05,20.1a2.1,2.1,0,0,1-.9.58c-.12,0-.25.06-.38.09v.94a.3.3,0,0,1-.3.29h-.6a.29.29,0,0,1-.3-.29v-.89a3.13,3.13,0,0,1-.84-.17,2,2,0,0,1-1-.66.5.5,0,0,1,0-.75c.41-.34.88,0,1.26.2a1.72,1.72,0,0,0,.92.21,1.57,1.57,0,0,0,.81-.18c.17-.1.2-.19.2-.29a.32.32,0,0,0-.06-.2.67.67,0,0,0-.28-.18,4.78,4.78,0,0,0-.91-.28,5.16,5.16,0,0,1-1.17-.38,1.94,1.94,0,0,1-.73-.56,1.39,1.39,0,0,1-.25-.81,1.43,1.43,0,0,1,.74-1.22,2.88,2.88,0,0,1,1.23-.39v-.88a.29.29,0,0,1,.3-.28h.6a.3.3,0,0,1,.3.28v1a2.38,2.38,0,0,1,.38.11A2.15,2.15,0,0,1,23,16a.52.52,0,0,1-.09.77c-.46.34-1-.05-1.23-.25a1.23,1.23,0,0,0-.74-.2,1.55,1.55,0,0,0-.79.17c-.17.1-.18.18-.18.25a.28.28,0,0,0,.14.25,3.71,3.71,0,0,0,1,.35,4.8,4.8,0,0,1,1.47.52,1.49,1.49,0,0,1,.76,1.29A1.39,1.39,0,0,1,23.05,20.1Z" />
</svg>