<svg xmlns="http://www.w3.org/2000/svg">
  <title>Contenu-Service clientèle</title>
  <path d="M25.82,11.13C24.63,6.34,21.42,4,16,4S7.37,6.34,6.18,11.13A3,3,0,0,0,4,14v3a3,3,0,0,0,6,0V14a3,3,0,0,0-1.79-2.74C9.23,7.59,11.61,6,16,6s6.77,1.59,7.79,5.26A3,3,0,0,0,22,14v3a3,3,0,0,0,1.94,2.8,5.54,5.54,0,0,1-5,5.14,3,3,0,1,0-.76,2c5.56-.12,7.42-4.33,7.72-7.16A3,3,0,0,0,28,17V14A3,3,0,0,0,25.82,11.13ZM8,17a1,1,0,0,1-2,0V14a1,1,0,0,1,2,0Zm8,9a1,1,0,1,1,1-1A1,1,0,0,1,16,26Zm10-9a1,1,0,0,1-2,0V14a1,1,0,0,1,2,0Z" />
</svg>