<svg xmlns="http://www.w3.org/2000/svg">
  <title>Outline-Produits-Capital Régional</title>
  <path d="M27,14.81a3.76,3.76,0,0,0-1.63-2.7,4,4,0,0,0-3.58-.29,7,7,0,0,0-3.08,3A18.9,18.9,0,0,0,20,10c0-3.49-3.3-5.74-3.44-5.83a1,1,0,0,0-1.11,0C15.28,4.26,12,6.51,12,10a12.46,12.46,0,0,0,1.34,4.56c.18.41.36.86.54,1.31-.78-1.58-2-3.36-3.64-4a4,4,0,0,0-3.64.32A3.8,3.8,0,0,0,5,14.81c-.16,1.55.62,3.2,2.31,4.9A1,1,0,0,0,8,20a1,1,0,0,0,1-1.2c-.07-.34,0-.89.12-1s.68-.39,3.34,1.34A1,1,0,0,0,12,20a1,1,0,0,0,1,1H14a2.7,2.7,0,0,1-1.5,2.11A1,1,0,0,0,12,24c0,.08,0,1.71,2.36,2l.73,1.48A1,1,0,0,0,16,28a1,1,0,0,0,.89-.55L17.61,26c2.33-.26,2.36-1.89,2.36-2a1,1,0,0,0-.55-.89A2.58,2.58,0,0,1,18,21h1a1,1,0,0,0,.52-1.83c2.68-1.74,3.37-1.36,3.37-1.35s.19.59.12,1A1,1,0,0,0,24,20a1,1,0,0,0,.71-.29C26.36,18,27.14,16.36,27,14.81ZM16,6.28A5.32,5.32,0,0,1,18,10a28,28,0,0,1-1.87,6.06c-.31-.82-.63-1.58-.93-2.29A11.24,11.24,0,0,1,14,10,5.33,5.33,0,0,1,16,6.28ZM8.05,16.14a2.22,2.22,0,0,0-.58.56A2.81,2.81,0,0,1,7,15.05a1.8,1.8,0,0,1,.62-1.2h0a2,2,0,0,1,1.83-.19A6.06,6.06,0,0,1,12,16.55C10.24,15.68,9,15.55,8.05,16.14ZM17,24a1,1,0,0,0-.89.55l-.1.21-.11-.21A1,1,0,0,0,15,24h-.29a4.68,4.68,0,0,0,1.17-2h.27a4.58,4.58,0,0,0,1.14,2Zm7.56-7.3a2.22,2.22,0,0,0-.58-.56,2.38,2.38,0,0,0-1.31-.36,6,6,0,0,0-2.62.77,6.06,6.06,0,0,1,2.52-2.89,1.93,1.93,0,0,1,1.77.16A1.75,1.75,0,0,1,25,15,2.82,2.82,0,0,1,24.53,16.7Z" />
</svg>