<svg xmlns="http://www.w3.org/2000/svg">
  <title>Produits-Compte epargne</title>
  <path d="M21.64,19.9a4.62,4.62,0,0,0-1.47-.53,3.71,3.71,0,0,1-1-.35.28.28,0,0,1-.14-.25c0-.07,0-.15.18-.25a1.55,1.55,0,0,1,.79-.17,1.23,1.23,0,0,1,.74.2c.25.2.77.59,1.23.25A.52.52,0,0,0,22,18a2.15,2.15,0,0,0-.88-.67c-.12-.05-.25-.07-.38-.11v-1a.3.3,0,0,0-.3-.29h-.6a.29.29,0,0,0-.3.29v.87a2.88,2.88,0,0,0-1.23.39,1.43,1.43,0,0,0-.74,1.22,1.44,1.44,0,0,0,.25.82,2,2,0,0,0,.73.55,5.16,5.16,0,0,0,1.17.38,4.78,4.78,0,0,1,.91.28.59.59,0,0,1,.28.19.27.27,0,0,1,.06.19c0,.1,0,.19-.2.29a1.57,1.57,0,0,1-.81.18,1.72,1.72,0,0,1-.92-.21c-.38-.24-.85-.54-1.26-.2a.5.5,0,0,0,0,.75,2,2,0,0,0,1,.66,3.13,3.13,0,0,0,.84.17v.89a.29.29,0,0,0,.3.29h.6a.3.3,0,0,0,.3-.29v-.94c.13,0,.26-.05.38-.09a2.1,2.1,0,0,0,.9-.58,1.39,1.39,0,0,0,.35-.92A1.46,1.46,0,0,0,21.64,19.9Z"/>
  <path d="M23,12.59V7a1,1,0,0,0,0-.17,1.84,1.84,0,0,0,0-.33C23,4.77,20.49,4,18,4s-5,.77-5,2.5a1.84,1.84,0,0,0,0,.33A1,1,0,0,0,13,7V8.9A7.9,7.9,0,0,0,9,8c-2.49,0-5,.77-5,2.5a1.84,1.84,0,0,0,0,.33A1,1,0,0,0,4,11V22a1,1,0,0,0,0,.25,1,1,0,0,0,0,.25C4,24.23,6.51,25,9,25a7.64,7.64,0,0,0,4.1-1A8,8,0,1,0,23,12.59ZM9,10a6.65,6.65,0,0,1,2.77.5A6.65,6.65,0,0,1,9,11a6.65,6.65,0,0,1-2.77-.5A6.65,6.65,0,0,1,9,10ZM6,12.56A9.5,9.5,0,0,0,9,13a9.5,9.5,0,0,0,3-.44v1.8A5.58,5.58,0,0,1,9,15a5.58,5.58,0,0,1-3-.64Zm0,4A9.5,9.5,0,0,0,9,17a9.5,9.5,0,0,0,3-.44v1.8A5.58,5.58,0,0,1,9,19a5.58,5.58,0,0,1-3-.64Zm6,5.79A5.5,5.5,0,0,1,9,23a5.5,5.5,0,0,1-3-.65s0-.07,0-.11A.93.93,0,0,0,6,22V20.56A9.5,9.5,0,0,0,9,21a9.5,9.5,0,0,0,3-.44V22a.93.93,0,0,0,.05.24S12,22.31,12,22.35ZM18,6a6.65,6.65,0,0,1,2.77.5A6.65,6.65,0,0,1,18,7a6.65,6.65,0,0,1-2.77-.5A6.65,6.65,0,0,1,18,6ZM15,8.56A9.5,9.5,0,0,0,18,9a9.5,9.5,0,0,0,3-.44v1.8A5.58,5.58,0,0,1,18,11a5.58,5.58,0,0,1-3-.64Zm0,5,.2.06-.2.14ZM20,26a6,6,0,1,1,6-6A6,6,0,0,1,20,26Z" />
</svg>