<svg xmlns="http://www.w3.org/2000/svg">
  <title>Produits - Devises</title>
  <path d="M5.42,10a8,8,0,0,0,1.71.55,8.14,8.14,0,0,1,1.33.4,1.16,1.16,0,0,1,.42.28.48.48,0,0,1,.08.29c0,.15-.05.27-.29.42a2.35,2.35,0,0,1-1.18.26,2.48,2.48,0,0,1-1.35-.31c-.55-.35-1.24-.78-1.84-.29a.75.75,0,0,0-.07,1.1,3,3,0,0,0,1.41,1A4.88,4.88,0,0,0,6.87,14v1.3a.43.43,0,0,0,.44.42h.87a.43.43,0,0,0,.44-.42V13.87a5.07,5.07,0,0,0,.56-.13,3.05,3.05,0,0,0,1.32-.85,2,2,0,0,0,.5-1.34A2.15,2.15,0,0,0,9.89,9.68a7,7,0,0,0-2.15-.77,5,5,0,0,1-1.5-.51A.38.38,0,0,1,6,8c0-.1,0-.21.26-.36a2.18,2.18,0,0,1,1.15-.25,1.71,1.71,0,0,1,1.08.3c.37.27,1.13.85,1.8.36A.75.75,0,0,0,10.45,7,2.91,2.91,0,0,0,9.17,6a3.19,3.19,0,0,0-.55-.16V4.42A.43.43,0,0,0,8.18,4H7.31a.43.43,0,0,0-.44.42V5.7a4.06,4.06,0,0,0-1.79.56A2.06,2.06,0,0,0,4,8.05a1.93,1.93,0,0,0,.37,1.18A2.77,2.77,0,0,0,5.42,10Z" />
  <path d="M15.5,9A2.51,2.51,0,0,0,18,7c4.22.06,7.67,3.51,8.05,8.07A1,1,0,0,0,27,16h.08A1,1,0,0,0,28,14.92C27.52,9.26,23.16,5,17.84,5L17.5,5a2.5,2.5,0,1,0-2,4Zm0-3a.5.5,0,1,1-.5.5A.5.5,0,0,1,15.5,6Z" />
  <path d="M16.5,23a2.51,2.51,0,0,0-2.45,2c-4.47-.05-7.7-2.88-8-7.08A1,1,0,0,0,4.92,17,1,1,0,0,0,4,18.08C4.45,23.42,8.53,27,14.16,27l.34,0a2.5,2.5,0,1,0,2-4Zm0,3a.5.5,0,1,1,.5-.5A.5.5,0,0,1,16.5,26Z" />
  <path d="M27.06,25.88a2.35,2.35,0,0,1-1.41.48,2.2,2.2,0,0,1-2-1.59H26.4v-.89h-3c0-.12,0-.24,0-.37s0-.27,0-.4H26.4v-.89H23.65A2.12,2.12,0,0,1,27,21.09l1-1.32a3.86,3.86,0,0,0-6.12,2.45H21v.89h.69c0,.13,0,.26,0,.4s0,.25,0,.37H21v.89h.8A3.9,3.9,0,0,0,25.65,28,3.94,3.94,0,0,0,28,27.22Z" />
</svg>