<svg xmlns="http://www.w3.org/2000/svg">
  <title>Contenu-Nouveaux arrivants</title>
  <path d="M28,16c-.06-.28-.31-.91-1.39-1a.2.2,0,0,1-.06-.07,3.54,3.54,0,0,1,.27-2,1.45,1.45,0,0,0,0-1.6,1.69,1.69,0,0,0-1.66-.53.93.93,0,0,0-.33.12,1.15,1.15,0,0,1-.86.22.85.85,0,0,1-.41-.46,1.25,1.25,0,0,0-1.14-1,1.3,1.3,0,0,0-1.24.88l-1.17,2.07h0l.73-4.79a1,1,0,0,0-.46-1,1,1,0,0,0-1.1,0,.83.83,0,0,1-.5.21.43.43,0,0,1-.21-.21L17.38,5a1.65,1.65,0,0,0-1.44-1h0a1.88,1.88,0,0,0-1.52,1l-.9,1.8c-.11.19-.19.2-.22.21a1.09,1.09,0,0,1-.65-.21,1,1,0,0,0-1.56,1L12,12.42v0l-.08,0-1.22-1.92c-.37-.87-.92-1-1.32-1-.58,0-1.05.48-1.27,1.28-.05.26-.13.35-.15.36A1.13,1.13,0,0,1,7.32,11a.72.72,0,0,0-.2-.09,1.7,1.7,0,0,0-1.7.28,2,2,0,0,0-.51,1.75,1,1,0,0,0,.11.29,2.16,2.16,0,0,1,.36,1.6.93.93,0,0,1-.55.38A1,1,0,0,0,4.41,17l4.75,3.48.08,0a3.06,3.06,0,0,1,.68.52l-.07.08a1,1,0,0,0,.87,1.77A10.23,10.23,0,0,1,15,22.14V27a1,1,0,0,0,1,1h0a1,1,0,0,0,1-1s0-3.65.05-5a1.79,1.79,0,0,1,.4,0l3.63.81a1,1,0,0,0,1-1.63.94.94,0,0,1-.09-.13,1.37,1.37,0,0,1,.58-.55l4.35-3C27.27,17.4,28.17,16.9,28,16Zm-6.49,2.87A3.16,3.16,0,0,0,20,20.6l-2.14-.48a3.43,3.43,0,0,0-.71-.08,2.5,2.5,0,0,0-1.2.28,7.47,7.47,0,0,0-4.14.15,3.24,3.24,0,0,0-1.54-1.68L6.8,16.23a2.41,2.41,0,0,0,.37-.55,3.23,3.23,0,0,0,0-2.67,2.53,2.53,0,0,0,1.68-.09,2.2,2.2,0,0,0,.73-.56l.82,1.28a1.07,1.07,0,0,0,.22.25,2.46,2.46,0,0,0,2.3.5A2.07,2.07,0,0,0,14,12.46a1,1,0,0,0,0-.29L13.37,9a2,2,0,0,0,.34,0,2.41,2.41,0,0,0,1.57-1.21l.65-1.28.66,1.22a2.36,2.36,0,0,0,1.48,1.23,1.93,1.93,0,0,0,.36.06l-.52,3.36a2,2,0,0,0,.65,1.76,2.34,2.34,0,0,0,2.31.29,1,1,0,0,0,.59-.46l.86-1.53a2.47,2.47,0,0,0,2.32.65,4.2,4.2,0,0,0,.08,2.73,2.43,2.43,0,0,0,.41.58Z" />
</svg>