<svg xmlns="http://www.w3.org/2000/svg">
  <title>Contenu-À échéance</title>
  <path d="M26,17A10,10,0,1,0,9.24,24.35L7.29,26.29a1,1,0,0,0,0,1.42,1,1,0,0,0,1.42,0l2-2a1.63,1.63,0,0,0,.11-.17,9.92,9.92,0,0,0,10.36,0,1.63,1.63,0,0,0,.11.17l2,2a1,1,0,0,0,1.42,0,1,1,0,0,0,0-1.42l-1.95-1.94A10,10,0,0,0,26,17ZM8,17a8,8,0,1,1,8,8A8,8,0,0,1,8,17Z"/>
  <path d="M16,12a1,1,0,0,0-1,1v4H12a1,1,0,0,0,0,2h4a1,1,0,0,0,1-1V13A1,1,0,0,0,16,12Z"/>
  <path d="M10.2,6a1,1,0,1,0-.4-2C5.21,4.94,4,8.33,4,10a1,1,0,0,0,2,0S6.05,6.81,10.2,6Z"/>
  <path d="M22.2,4a1,1,0,0,0-.4,2c4.08.82,4.2,3.88,4.2,4a1,1,0,0,0,2,0C28,8.33,26.79,4.94,22.2,4Z" />
</svg>