<svg xmlns="http://www.w3.org/2000/svg">
  <title>Outline-Produits-Placements</title>
  <path d="M25,4H7A3,3,0,0,0,4,7V23a3,3,0,0,0,3,3H8v1a1,1,0,0,0,1,1h2a1,1,0,0,0,1-1V26h8v1a1,1,0,0,0,1,1h2a1,1,0,0,0,1-1V26h1a3,3,0,0,0,3-3V7A3,3,0,0,0,25,4Zm1,5H25a1,1,0,0,0-1,1v1a1,1,0,0,0,1,1h1v6H25a1,1,0,0,0-1,1v1a1,1,0,0,0,1,1h1v2a1,1,0,0,1-1,1H7a1,1,0,0,1-1-1V7A1,1,0,0,1,7,6H25a1,1,0,0,1,1,1Z" />
  <path d="M17.5,12A3.5,3.5,0,1,0,21,15.5,3.5,3.5,0,0,0,17.5,12Zm0,5A1.5,1.5,0,1,1,19,15.5,1.5,1.5,0,0,1,17.5,17Z" />
  <path d="M10,12a2,2,0,0,0-2,2,2,2,0,0,0,1,1.72V18a1,1,0,0,0,2,0V15.72A2,2,0,0,0,12,14,2,2,0,0,0,10,12Z" />
</svg>