<svg xmlns="http://www.w3.org/2000/svg">
  <title>Outline-Produits-Marges crédit</title>
  <path d="M27,8H22.81L22,4.75A1,1,0,0,0,20.91,4l-11,1a1,1,0,0,0-.75.45,1.07,1.07,0,0,0-.11.87L10,9.15,4.84,10a1,1,0,0,0-.76.59,1,1,0,0,0,.09,1L14,26.3V27a1,1,0,0,0,1,1H27a1,1,0,0,0,1-1V9A1,1,0,0,0,27,8ZM20.25,6.07,20.75,8H15a1,1,0,0,0-1,1v5.84l-2.65-8ZM6.69,11.73l4-.66L14,21.16V22.7ZM26,26H16V10H26Z" />
  <path d="M19.58,18.14a5.16,5.16,0,0,0,1.17.38,4.78,4.78,0,0,1,.91.28.67.67,0,0,1,.28.18.32.32,0,0,1,.06.2c0,.1,0,.19-.2.29a1.57,1.57,0,0,1-.81.18,1.72,1.72,0,0,1-.92-.21c-.38-.24-.85-.54-1.26-.2a.5.5,0,0,0,0,.75,2,2,0,0,0,1,.66,3.13,3.13,0,0,0,.84.17v.89a.29.29,0,0,0,.3.29h.6a.3.3,0,0,0,.3-.29v-.94c.13,0,.26-.05.38-.09a2.1,2.1,0,0,0,.9-.58,1.39,1.39,0,0,0,.35-.92,1.49,1.49,0,0,0-.76-1.29,4.8,4.8,0,0,0-1.47-.52,3.71,3.71,0,0,1-1-.35.28.28,0,0,1-.14-.25c0-.07,0-.15.18-.25a1.55,1.55,0,0,1,.79-.17,1.23,1.23,0,0,1,.74.2c.25.2.77.59,1.23.25A.52.52,0,0,0,23,16a2.15,2.15,0,0,0-.88-.67,2.38,2.38,0,0,0-.38-.11v-1a.3.3,0,0,0-.3-.28h-.6a.29.29,0,0,0-.3.28v.88a2.88,2.88,0,0,0-1.23.39,1.43,1.43,0,0,0-.74,1.22,1.39,1.39,0,0,0,.25.81A1.94,1.94,0,0,0,19.58,18.14Z" />
</svg>