<svg xmlns="http://www.w3.org/2000/svg">
  <title>Contenu-Point de services</title>
  <path d="M16,9a4,4,0,1,0,4,4A4,4,0,0,0,16,9Zm0,6a2,2,0,1,1,2-2A2,2,0,0,1,16,15Z"/>
  <path d="M16,4C10.21,4,6,8,6,13.5c0,2.5,1.84,5.15,2.83,6.56.13.19.24.36.34.49a61,61,0,0,0,6.12,7.16,1,1,0,0,0,1.42,0,89.76,89.76,0,0,0,6.5-7.14C24.48,18.73,26,16,26,13.5,26,8,21.79,4,16,4Zm5.56,15.43A72.09,72.09,0,0,1,16,25.57a52.47,52.47,0,0,1-5.17-6.13l-.36-.52C9.61,17.68,8,15.38,8,13.5,8,9.08,11.29,6,16,6s8,3.08,8,7.5C24,15.06,23.13,17.16,21.56,19.43Z" />
</svg>