<svg xmlns="http://www.w3.org/2000/svg">
  <title>Navigation-Applications</title>
  <path d="M11,4H7A3,3,0,0,0,4,7v4a3,3,0,0,0,3,3h4a3,3,0,0,0,3-3V7A3,3,0,0,0,11,4Zm1,7a1,1,0,0,1-1,1H7a1,1,0,0,1-1-1V7A1,1,0,0,1,7,6h4a1,1,0,0,1,1,1Z" />
  <path d="M25,4H21a3,3,0,0,0-3,3v4a3,3,0,0,0,3,3h4a3,3,0,0,0,3-3V7A3,3,0,0,0,25,4Zm1,7a1,1,0,0,1-1,1H21a1,1,0,0,1-1-1V7a1,1,0,0,1,1-1h4a1,1,0,0,1,1,1Z" />
  <path d="M25,18H21a3,3,0,0,0-3,3v4a3,3,0,0,0,3,3h4a3,3,0,0,0,3-3V21A3,3,0,0,0,25,18Zm1,7a1,1,0,0,1-1,1H21a1,1,0,0,1-1-1V21a1,1,0,0,1,1-1h4a1,1,0,0,1,1,1Z" />
  <path d="M11,18H7a3,3,0,0,0-3,3v4a3,3,0,0,0,3,3h4a3,3,0,0,0,3-3V21A3,3,0,0,0,11,18Zm1,7a1,1,0,0,1-1,1H7a1,1,0,0,1-1-1V21a1,1,0,0,1,1-1h4a1,1,0,0,1,1,1Z" />
</svg>