<svg xmlns="http://www.w3.org/2000/svg">
  <title>Outline-Produits-Sélecteur produits</title>
  <path d="M24,4H8A3,3,0,0,0,5,7V25a3,3,0,0,0,3,3H24a3,3,0,0,0,3-3V7A3,3,0,0,0,24,4Zm1,21a1,1,0,0,1-1,1H8a1,1,0,0,1-1-1V7A1,1,0,0,1,8,6h3a1,1,0,0,0,0,2H21a1,1,0,0,0,0-2h3a1,1,0,0,1,1,1Z" />
  <path d="M16,10a7,7,0,1,0,7,7A7,7,0,0,0,16,10Zm0,12a5,5,0,1,1,5-5A5,5,0,0,1,16,22Z" />
  <path d="M18.23,14.33a1,1,0,0,0-1.37.32l-1.68,2.69-.83-.67a1,1,0,0,0-1.25,1.57l1.71,1.36a1,1,0,0,0,.62.22l.17,0a1,1,0,0,0,.68-.45l2.27-3.64A1,1,0,0,0,18.23,14.33Z" />
</svg>