<svg xmlns="http://www.w3.org/2000/svg">
  <title>Outline-Produits-Parts permanentes</title>
  <path d="M26,4H6A2,2,0,0,0,4,6V20a2,2,0,0,0,2,2h7a1,1,0,0,0,0-2H6V6H26V20H25a1,1,0,0,0,0,2h1a2,2,0,0,0,2-2V6A2,2,0,0,0,26,4Z" />
  <path d="M23,19a4,4,0,1,0-6,3.44l-1,5a.5.5,0,0,0,.83.47l2.16-2,2.16,2a.53.53,0,0,0,.34.13.5.5,0,0,0,.24-.06A.52.52,0,0,0,22,27.4l-1-5A4,4,0,0,0,23,19Zm-4,2a2,2,0,1,1,2-2A2,2,0,0,1,19,21Z" />
  <path d="M23,9H9a1,1,0,0,0,0,2H23a1,1,0,0,0,0-2Z" />
  <path d="M9,14a1,1,0,0,0,0,2h4a1,1,0,0,0,0-2Z" />
</svg>