<svg xmlns="http://www.w3.org/2000/svg">
  <title>Contenu-Visible</title>
  <path d="M27.77,15.11c-4.1-5-8.4-7.37-12.71-7.09-6.6.43-10.73,6.92-10.91,7.2a1,1,0,0,0,0,1.12C7.93,21.43,11.91,24,16,24h.42c6.77-.28,11.22-7.41,11.4-7.72A1,1,0,0,0,27.77,15.11ZM16.37,22c-3.41.16-6.82-2-10.14-6.26,1.09-1.48,4.4-5.42,9-5.71,3.52-.24,7,1.72,10.56,5.8C24.6,17.43,21.05,21.8,16.37,22Z"/>
  <path d="M16,11.52A4.5,4.5,0,1,0,20.5,16,4.51,4.51,0,0,0,16,11.52Zm0,7A2.5,2.5,0,1,1,18.5,16,2.5,2.5,0,0,1,16,18.52Z" />
</svg>