<svg xmlns="http://www.w3.org/2000/svg">
  <title>Contenu-Non-visible</title>
  <path d="M22.93,10.48l4.78-4.77a1,1,0,1,0-1.42-1.42L21.18,9.41A11.39,11.39,0,0,0,15.06,8c-6.6.43-10.73,6.92-10.91,7.2a1,1,0,0,0,0,1.12,24.38,24.38,0,0,0,4.93,5.14L4.29,26.29a1,1,0,0,0,0,1.42,1,1,0,0,0,1.42,0l5.13-5.14A10.61,10.61,0,0,0,16,24h.42c6.77-.28,11.22-7.41,11.4-7.72a1,1,0,0,0-.08-1.16A24.88,24.88,0,0,0,22.93,10.48ZM6.23,15.71c1.09-1.48,4.4-5.42,9-5.71a9.2,9.2,0,0,1,4.49.91L18.39,12.2A4.46,4.46,0,0,0,16,11.5,4.51,4.51,0,0,0,11.5,16a4.46,4.46,0,0,0,.7,2.39L10.57,20A21,21,0,0,1,6.23,15.71ZM18.5,16a2.48,2.48,0,0,1-3.41,2.32l3.23-3.23A2.5,2.5,0,0,1,18.5,16Zm-5,0a2.48,2.48,0,0,1,3.41-2.32l-3.23,3.23A2.5,2.5,0,0,1,13.5,16Zm2.87,6a8.22,8.22,0,0,1-4-.89l1.28-1.28a4.46,4.46,0,0,0,2.39.7A4.51,4.51,0,0,0,20.5,16a4.46,4.46,0,0,0-.7-2.39l1.69-1.69a21.4,21.4,0,0,1,4.26,3.88C24.6,17.41,21.05,21.78,16.37,22Z" />
</svg>