<svg xmlns="http://www.w3.org/2000/svg">
  <title>Produits-Auto</title>
  <circle cx="8.5" cy="18.5" r="1.5"/>
  <circle cx="23.5" cy="18.5" r="1.5"/>
  <path d="M27,13a1,1,0,0,0,1-1V11a1,1,0,0,0-1-1H25a.9.9,0,0,0-.4.09L22.94,5.65A1,1,0,0,0,22,5H10a1,1,0,0,0-.94.65L7.4,10.09A.9.9,0,0,0,7,10H5a1,1,0,0,0-1,1v1a1,1,0,0,0,1,1H6.31l-.19.49A4,4,0,0,0,4,17v9a1,1,0,0,0,1,1H8a1,1,0,0,0,1-1V24H23v2a1,1,0,0,0,1,1h3a1,1,0,0,0,1-1V17a4,4,0,0,0-2.12-3.51L25.69,13ZM10.69,7H21.31l2.25,6H8.44ZM26,22H6V17a2,2,0,0,1,2-2H24a2,2,0,0,1,2,2Z"/>
  <path d="M19,17.5H13a1.5,1.5,0,0,0,0,3h6a1.5,1.5,0,0,0,0-3Z" />
</svg>