<svg xmlns="http://www.w3.org/2000/svg">
  <title>Outline-Produits-Epargne à terme</title>
  <path d="M24,15a6.63,6.63,0,0,0-.79,0,10,10,0,0,0-5.16-5.2L19,5.19a1,1,0,0,0-.42-1,1,1,0,0,0-1.1,0S15,5.69,13.63,4.63A2.93,2.93,0,0,0,11.35,4,5.55,5.55,0,0,0,8.19,6.4a1,1,0,0,0,0,1.09L9.78,9.92A10,10,0,0,0,4,19v4a5,5,0,0,0,5,5H19a5,5,0,0,0,2.38-.61A5.64,5.64,0,0,0,24,28c2.31,0,4-1,4-2.5v-8C28,16,26.32,15,24,15ZM11.69,6a.86.86,0,0,1,.72.21,4.6,4.6,0,0,0,4.24.49l-.5,2.51A10,10,0,0,0,14,9a9.72,9.72,0,0,0-2.3.28L10.25,7A2.92,2.92,0,0,1,11.69,6ZM20,17.48v8.26a2.83,2.83,0,0,1-1,.2H9a3,3,0,0,1-3-3V19a7.94,7.94,0,0,1,15.16-3.33A2.16,2.16,0,0,0,20,17.48Zm4-.5a3.24,3.24,0,0,1,1.93.5A3.17,3.17,0,0,1,24,18a3.19,3.19,0,0,1-1.94-.5A3.26,3.26,0,0,1,24,17Zm2,8.43A2.89,2.89,0,0,1,24,26a3.41,3.41,0,0,1-2-.5V23.66a6.57,6.57,0,0,0,4,0Zm0-4A2.87,2.87,0,0,1,24,22a3.41,3.41,0,0,1-2-.5V19.66a6.38,6.38,0,0,0,4,0Z" />
  <path d="M15.55,18.37a6,6,0,0,0-1.84-.66,4,4,0,0,1-1.29-.44.35.35,0,0,1-.17-.31c0-.08,0-.18.22-.31a1.92,1.92,0,0,1,1-.21,1.51,1.51,0,0,1,.93.25c.31.24,1,.74,1.54.32a.66.66,0,0,0,.1-1,2.46,2.46,0,0,0-1.1-.83,2.54,2.54,0,0,0-.47-.14V13.86a.37.37,0,0,0-.38-.36h-.75a.37.37,0,0,0-.37.36V15a3.33,3.33,0,0,0-1.54.48A1.78,1.78,0,0,0,10.5,17a1.69,1.69,0,0,0,.32,1,2.26,2.26,0,0,0,.9.7,6.88,6.88,0,0,0,1.47.47,6.11,6.11,0,0,1,1.14.35,1.05,1.05,0,0,1,.35.23.37.37,0,0,1,.07.25c0,.13,0,.23-.25.36a2,2,0,0,1-1,.22,2.18,2.18,0,0,1-1.15-.26c-.48-.3-1.07-.67-1.58-.25a.63.63,0,0,0-.06.94,2.59,2.59,0,0,0,1.21.83A4.88,4.88,0,0,0,13,22v1.11a.37.37,0,0,0,.37.36h.75a.37.37,0,0,0,.38-.36V22a3.72,3.72,0,0,0,.48-.11,2.55,2.55,0,0,0,1.13-.73A1.75,1.75,0,0,0,16.5,20,1.84,1.84,0,0,0,15.55,18.37Z" />
</svg>