<svg xmlns="http://www.w3.org/2000/svg">
  <title>Contenu-Outils</title>
  <path d="M27.21,22.76l-8.27-8.28L23,10.42l.29.29A1,1,0,0,0,24,11h.12a1,1,0,0,0,.74-.47l3-5a1,1,0,0,0-1.37-1.38l-5,3a1,1,0,0,0-.48.74,1,1,0,0,0,.28.83l.3.29-4.07,4.07-.77-.78a1,1,0,0,0-1.05-.22,6.42,6.42,0,0,0-1.63-6.45,5.3,5.3,0,0,0-5.41-1.4A1,1,0,0,0,8,5.64L9.53,8.76l-.75.76L5.6,8a1,1,0,0,0-.86,0,1,1,0,0,0-.54.68,5.25,5.25,0,0,0,1.47,5.36A6.51,6.51,0,0,0,10.24,16a5.85,5.85,0,0,0,1.83-.31,1,1,0,0,0,0,.79L4.29,24.29a1,1,0,0,0,0,1.42l2,2a1,1,0,0,0,1.42,0l7.77-7.77,7.28,7.27a2.68,2.68,0,0,0,1.93.79,3.1,3.1,0,0,0,2.2-.93l.18-.18A2.93,2.93,0,0,0,27.21,22.76ZM7.08,12.65A3.16,3.16,0,0,1,6,10.42l2.57,1.21a1,1,0,0,0,1.13-.2l1.75-1.76a1,1,0,0,0,.19-1.15L10.4,6a3.05,3.05,0,0,1,2.26,1,4.2,4.2,0,0,1,.26,5.88A3.71,3.71,0,0,1,10.24,14,4.52,4.52,0,0,1,7.08,12.65ZM7,25.59,6.41,25,13,18.41l.59.59Zm18.65-.11-.17.17a1,1,0,0,1-1.31.15L14.41,16,16,14.42l9.76,9.75A1,1,0,0,1,25.65,25.48Z" />
</svg>