<svg xmlns="http://www.w3.org/2000/svg">
  <title>Produits-Compte en ligne</title>
  <path d="M18.13,17V11.56a1,1,0,0,0-.29-.71,2.63,2.63,0,0,0-1.9-.85,3,3,0,0,0-2,.85,1,1,0,0,0-.29.71v8.37l-.76-.76a1,1,0,0,0-.71-.3,2.58,2.58,0,0,0-2.64,2.67,1,1,0,0,0,.19.58l3.94,5.46a1,1,0,0,0,.81.42,1,1,0,0,0,.58-.19,1,1,0,0,0,.23-1.39l-3.71-5.16a.54.54,0,0,1,.26-.32L14,23.06a1,1,0,0,0,1.7-.71V12.07a.72.72,0,0,1,.28-.07.44.44,0,0,1,.19,0v5.33a1,1,0,0,0,.4.78,1,1,0,0,0,1,.85c4.07,0,4.88.94,5,1.12V23.7l-1.83,2.75a1,1,0,0,0,.27,1.38,1,1,0,0,0,.56.17,1,1,0,0,0,.83-.45l2-3A1,1,0,0,0,24.5,24V20C24.5,19.32,24,17.16,18.13,17Z"/>
  <path d="M11.18,6A1,1,0,0,0,12,4.82,1,1,0,0,0,10.82,4C8.54,4.43,6.45,6.54,5.5,9.39S5,15.14,6.65,16.72a1,1,0,0,0,.69.28,1,1,0,0,0,.72-.31,1,1,0,0,0,0-1.41C7,14.26,6.7,12.09,7.39,10S9.65,6.26,11.18,6Z"/>
  <path d="M26.5,9.39c-.95-2.85-3-5-5.32-5.37a1,1,0,0,0-1.17.8A1,1,0,0,0,20.82,6c1.53.27,3.09,1.93,3.79,4S25,14.26,24,15.28a1,1,0,0,0,0,1.41,1,1,0,0,0,.72.31,1,1,0,0,0,.69-.28C27,15.14,27.46,12.26,26.5,9.39Z"/>
  <path d="M11.58,15.61h0a1,1,0,0,0,.33-1.23,4.5,4.5,0,1,1,8.52-2.7,4.61,4.61,0,0,1-.33,2.68,1,1,0,0,0,.32,1.25h0a1,1,0,0,0,1.48-.37,6.5,6.5,0,1,0-11.79,0A1,1,0,0,0,11.58,15.61Z" />
</svg>