<svg xmlns="http://www.w3.org/2000/svg">
  <title>Outline-Alertes-Avis</title>
  <path d="M26.79,22.47,24,18.78V15.14c0-4.49-2.42-7.81-6.07-8.68A1.7,1.7,0,0,0,18,6a2,2,0,0,0-4,0,1.84,1.84,0,0,0,.07.47C10.4,7.34,8,10.66,8,15.14v3.64L5.2,22.47a1,1,0,0,0-.14,1,1,1,0,0,0,.75.63A60.79,60.79,0,0,0,12,25c0,1.34,1.85,3,4,3s3.88-1.55,4-2.88a35.45,35.45,0,0,0,6.29-1.06,1,1,0,0,0,.54-1.59ZM16,26a2.63,2.63,0,0,1-1.85-.81c.86,0,1.7.08,2.53.08.38,0,.75,0,1.12,0A2.57,2.57,0,0,1,16,26ZM7.79,22.39l2-2.66a1,1,0,0,0,.2-.61v-4c0-3.42,1.86-6.88,6-6.88s6,3.46,6,6.88v4a1,1,0,0,0,.21.61l2.08,2.73A41.8,41.8,0,0,1,7.79,22.39Z" />
</svg>