<svg xmlns="http://www.w3.org/2000/svg">
  <title>Outline-Produits-Prêt</title>
  <path d="M27.13,22.79a1,1,0,0,0-.82-.44l-7.14-.07a2.06,2.06,0,0,0,.17-.33,3.62,3.62,0,0,0-.48-3,1,1,0,0,0-.25-.26l-5.07-3.51A.94.94,0,0,0,13,15H5a1,1,0,0,0,0,2h7.66l4.62,3.2a1.58,1.58,0,0,1,.16,1.11,1.56,1.56,0,0,1-.89.81L12.3,18.86a1,1,0,1,0-1.22,1.59l4.71,3.6a.91.91,0,0,0,.13.08l.1.05a1,1,0,0,0,.38.08h0l9.31.08A1.67,1.67,0,0,1,26,25.48a1,1,0,0,1-.31.52H15.1l-6-4.83A1,1,0,0,0,8.47,21H5a1,1,0,0,0,0,2H8.12l6,4.83a1,1,0,0,0,.62.22H26a1,1,0,0,0,.45-.11A3.1,3.1,0,0,0,27.91,26,4,4,0,0,0,27.13,22.79Z" />
  <path d="M20.63,11.25a9.67,9.67,0,0,0,1.95.66,8.46,8.46,0,0,1,1.52.48,1.38,1.38,0,0,1,.47.33.61.61,0,0,1,.09.35.54.54,0,0,1-.32.5,2.52,2.52,0,0,1-1.35.32,2.8,2.8,0,0,1-1.54-.37c-.63-.42-1.42-.94-2.1-.35a.92.92,0,0,0-.08,1.32,3.44,3.44,0,0,0,1.61,1.15,5.2,5.2,0,0,0,1.4.3V17.5a.5.5,0,0,0,.5.5h1a.5.5,0,0,0,.5-.5V15.85a4.29,4.29,0,0,0,.64-.17,3.41,3.41,0,0,0,1.5-1A2.45,2.45,0,0,0,27,13.06a2.6,2.6,0,0,0-1.27-2.24,7.69,7.69,0,0,0-2.45-.93,5.1,5.1,0,0,1-1.71-.61.46.46,0,0,1-.24-.43c0-.12,0-.26.3-.44A2.43,2.43,0,0,1,23,8.11a1.9,1.9,0,0,1,1.23.36c.42.33,1.29,1,2.06.44a.94.94,0,0,0,.14-1.35,3.38,3.38,0,0,0-1.47-1.17,4.61,4.61,0,0,0-.63-.2V4.5a.5.5,0,0,0-.5-.5h-1a.5.5,0,0,0-.5.5V6a4.48,4.48,0,0,0-2.05.67A2.52,2.52,0,0,0,19,8.86a2.36,2.36,0,0,0,.43,1.41A3.06,3.06,0,0,0,20.63,11.25Z" />
</svg>