<svg xmlns="http://www.w3.org/2000/svg">
  <title>Contenu-Langues</title>
  <path d="M16,4A12,12,0,1,0,28,16,12,12,0,0,0,16,4Zm9.52,15.05a1,1,0,0,0-.3-.14,37.45,37.45,0,0,0-4.32-.67,22.39,22.39,0,0,0,.08-4.6A36.57,36.57,0,0,0,25.22,13a2.21,2.21,0,0,0,.27-.12,9.93,9.93,0,0,1,0,6.19ZM13,13.81c1,0,2,.09,3,.09s1.94,0,2.95-.1a20.85,20.85,0,0,1-.09,4.29,47.84,47.84,0,0,0-5.8.06A20.06,20.06,0,0,1,13,13.81Zm11.69-2.76a35.93,35.93,0,0,1-4,.61A19.77,19.77,0,0,0,19,6.47,10,10,0,0,1,24.68,11.05ZM16.49,6a17.1,17.1,0,0,1,2.21,5.8c-1.92.1-3.77.07-5.43,0A16.82,16.82,0,0,1,15.46,6L16,6Zm-3.56.47a20.31,20.31,0,0,0-1.67,5.18c-1.73-.14-3.14-.33-4-.47A10,10,0,0,1,12.93,6.49ZM6.43,13.1c.85.14,2.47.39,4.57.57a22.35,22.35,0,0,0,.1,4.66,38.41,38.41,0,0,0-4.33.7,1.45,1.45,0,0,0-.26.11A10.18,10.18,0,0,1,6,16,9.93,9.93,0,0,1,6.43,13.1ZM7.32,21c.37-.08,1.89-.39,4.12-.63a27.08,27.08,0,0,0,1.73,5.26A10,10,0,0,1,7.32,21Zm8.24,5a26.31,26.31,0,0,1-2.11-5.84,44.94,44.94,0,0,1,5.11-.06A26,26,0,0,1,16.44,26L16,26Zm3.27-.4a26.63,26.63,0,0,0,1.74-5.36,33.8,33.8,0,0,1,4.16.64A10,10,0,0,1,18.83,25.58Z" />
</svg>