<svg xmlns="http://www.w3.org/2000/svg">
  <title>Contenu-Conseils</title>
  <path d="M24.68,4H7.32C5.49,4,4,5.86,4,8.14v11c0,2.29,1.49,4.15,3.32,4.15H9l2,4.15A1,1,0,0,0,12,28a1,1,0,0,0,.89-.56l2.05-4.15h9.79c1.83,0,3.32-1.86,3.32-4.15v-11C28,5.86,26.51,4,24.68,4ZM26,19.14c0,1.27-.69,2.15-1.32,2.15H14.26a1,1,0,0,0-.89.56L12,24.73l-1.42-2.88a1,1,0,0,0-.9-.56H7.32c-.63,0-1.32-.88-1.32-2.15v-11C6,6.88,6.69,6,7.32,6H24.68C25.31,6,26,6.88,26,8.14Z"/>
  <path d="M16,13a1,1,0,0,0-1,1v4a1,1,0,0,0,2,0V14A1,1,0,0,0,16,13Z"/>
  <circle cx="16" cy="10" r="1.5" />
</svg>