<svg xmlns="http://www.w3.org/2000/svg">
  <title>Produits-Retraite</title>
  <path d="M27.53,14.15a1,1,0,0,0-1.38.32l-2.87,4.59A.88.88,0,0,0,23,19H18a1,1,0,0,0-1,1v2H14V14h7.14a.87.87,0,0,0,.86-.88,6.77,6.77,0,0,0-1.92-5,10.21,10.21,0,0,0-6.22-2.61V4.88a.86.86,0,1,0-1.72,0v.65C4.09,6,4,13.05,4,13.12a.87.87,0,0,0,.86.88H12v8H7.93l-.2,0-.17.07a.49.49,0,0,0-.15.1l-.16.13s0,0,0,0l-3,4a1,1,0,0,0,.2,1.4A1,1,0,0,0,5,28a1,1,0,0,0,.8-.4L8.5,24H21.59l3.7,3.71a1,1,0,0,0,1.42,0,1,1,0,0,0,0-1.42l-3.44-3.43,4.58-7.33A1,1,0,0,0,27.53,14.15ZM18.86,9.4a4.86,4.86,0,0,1,1.35,2.85H18.3A5.8,5.8,0,0,0,16.41,7.9,6.53,6.53,0,0,1,18.86,9.4ZM7.7,12.25H5.83A5.7,5.7,0,0,1,9.77,7.74,5.81,5.81,0,0,0,7.7,12.25Zm1.73,0A4.43,4.43,0,0,1,13,8a4.41,4.41,0,0,1,3.57,4.23ZM19,21h3.07l-.62,1H19Z" />
</svg>