<svg xmlns="http://www.w3.org/2000/svg">
<title>Outline-Action-Virer</title>
<path d="M27.71,8.29l-4-4a1,1,0,0,0-1.42,1.42L24.59,8H10a1,1,0,0,0-.6.2,5.55,5.55,0,0,0-2.18,3.91A4.65,4.65,0,0,0,9.4,15.8a1,1,0,0,0,.6.2h7.81A3.36,3.36,0,0,1,20,19a3.83,3.83,0,0,1-2.25,3H7.41l2.3-2.29a1,1,0,0,0-1.42-1.42l-4,4a1,1,0,0,0,0,1.42l4,4a1,1,0,0,0,1.42,0,1,1,0,0,0,0-1.42L7.41,24H18a1,1,0,0,0,.45-.11A5.85,5.85,0,0,0,22,19c0-3.68-3.53-4.9-3.68-4.95A1.19,1.19,0,0,0,18,14H10.35a2.56,2.56,0,0,1-1.13-1.88A3.24,3.24,0,0,1,10.37,10H24.59l-2.3,2.29a1,1,0,0,0,0,1.42,1,1,0,0,0,1.42,0l4-4A1,1,0,0,0,27.71,8.29Z" />
</svg>