<svg xmlns="http://www.w3.org/2000/svg">
  <title>Contenu-Chèque</title>
  <path d="M22.72,15h-.6a.29.29,0,0,0-.3.29v.87a2.88,2.88,0,0,0-1.23.39,1.43,1.43,0,0,0-.74,1.22,1.44,1.44,0,0,0,.25.82,2,2,0,0,0,.73.55,5.16,5.16,0,0,0,1.17.38,4.78,4.78,0,0,1,.91.28.59.59,0,0,1,.28.19.27.27,0,0,1,.06.19c0,.1,0,.19-.2.29a1.57,1.57,0,0,1-.81.18,1.72,1.72,0,0,1-.92-.21c-.38-.24-.85-.54-1.26-.2A.5.5,0,0,0,20,21a2,2,0,0,0,1,.66,3.13,3.13,0,0,0,.84.17v.89a.29.29,0,0,0,.3.29h.6a.3.3,0,0,0,.3-.29v-.94c.13,0,.26-.05.38-.09a2.1,2.1,0,0,0,.9-.58,1.39,1.39,0,0,0,.35-.92,1.46,1.46,0,0,0-.76-1.28,4.62,4.62,0,0,0-1.47-.53,3.71,3.71,0,0,1-1-.35.28.28,0,0,1-.14-.25c0-.07,0-.15.18-.25a1.55,1.55,0,0,1,.79-.17,1.23,1.23,0,0,1,.74.2c.25.2.77.59,1.23.25a.52.52,0,0,0,.09-.77,2.15,2.15,0,0,0-.88-.67c-.12-.05-.25-.07-.38-.11v-1A.3.3,0,0,0,22.72,15Z" />
  <path d="M9,21a1,1,0,0,0,0,2h8a1,1,0,0,0,0-2Z" />
  <path d="M10.29,18.71A1,1,0,0,0,11,19a1.19,1.19,0,0,0,.32-.05l3.27-1.09a1,1,0,0,0,.39-.24l8.73-8.73a1,1,0,0,0,0-1.42L21.53,5.29a1,1,0,0,0-1.42,0L17.38,8h0l-6,6a1,1,0,0,0-.24.39l-1.09,3.27A1,1,0,0,0,10.29,18.71ZM20.82,7.41l.77.77L20.27,9.5l-.76-.77ZM13,15.27l5.13-5.13.77.77L13.73,16l-1.15.38Z" />
  <path d="M26,12H24a1,1,0,0,0,0,2h2V25H6V14h4a1,1,0,0,0,0-2H6a2,2,0,0,0-2,2V25a2,2,0,0,0,2,2H26a2,2,0,0,0,2-2V14A2,2,0,0,0,26,12Z" />
</svg>