<svg xmlns="http://www.w3.org/2000/svg">
  <title>Produits-Bonidollar</title>
  <path d="M25,9H21.65A3.45,3.45,0,0,0,22,7.5a3.49,3.49,0,0,0-6-2.44A3.49,3.49,0,0,0,10,7.5,3.45,3.45,0,0,0,10.35,9H7a3,3,0,0,0-3,3v1a3,3,0,0,0,1,2.22V24a3,3,0,0,0,3,3H24a3,3,0,0,0,3-3V15.22A3,3,0,0,0,28,13V12A3,3,0,0,0,25,9Zm1,3v1a1,1,0,0,1-1,1H17V11h8A1,1,0,0,1,26,12ZM18.5,6A1.5,1.5,0,1,1,17,7.5,1.5,1.5,0,0,1,18.5,6ZM12,7.5A1.5,1.5,0,1,1,13.5,9,1.5,1.5,0,0,1,12,7.5ZM6,12a1,1,0,0,1,1-1h8v3H7a1,1,0,0,1-1-1ZM8,25a1,1,0,0,1-1-1V16h8v9Zm17-1a1,1,0,0,1-1,1H17V16h8Z" />
</svg>