<svg xmlns="http://www.w3.org/2000/svg">
  <title>Contenu-Legal</title>
  <path d="M26.71,25.29l-9.54-9.51L18,15a2.06,2.06,0,0,0,1,.28,2,2,0,0,0,1.42-.59l.7-.69a2,2,0,0,0,0-2.86L14.54,4.59a2,2,0,0,0-2.86,0L11,5.28a2,2,0,0,0-.31,2.44l-2.95,3A2,2,0,0,0,5.28,11l-.69.69A2,2,0,0,0,4,13.09a2,2,0,0,0,.59,1.43l6.56,6.55a2,2,0,0,0,2.85,0l.7-.7A2,2,0,0,0,15.29,19a1.94,1.94,0,0,0-.28-1l.74-.75,9.54,9.52a1,1,0,0,0,1.42,0A1,1,0,0,0,26.71,25.29ZM9.19,12,12,9.18l4.46,4.45-2.86,2.84Zm3.93-6,6.56,6.57-.69.69h0L12.4,6.7Zm-.53,13.65s0,0,0,0h0L6,13.08l.72-.69L13.29,19Z" />
  <path d="M15,26H14a1,1,0,0,0,0-2H6a1,1,0,0,0,0,2H5a1,1,0,0,0,0,2H15a1,1,0,0,0,0-2Z" />
</svg>