<svg xmlns="http://www.w3.org/2000/svg">
  <title>Produits-Taux</title>
  <path d="M14,11A4.77,4.77,0,0,0,9.5,6,4.77,4.77,0,0,0,5,11a4.77,4.77,0,0,0,4.5,5A4.77,4.77,0,0,0,14,11ZM9.5,14A2.79,2.79,0,0,1,7,11,2.79,2.79,0,0,1,9.5,8,2.79,2.79,0,0,1,12,11,2.79,2.79,0,0,1,9.5,14Z"/>
  <path d="M22.5,16A4.77,4.77,0,0,0,18,21a4.77,4.77,0,0,0,4.5,5A4.77,4.77,0,0,0,27,21,4.77,4.77,0,0,0,22.5,16Zm0,8A2.79,2.79,0,0,1,20,21a2.79,2.79,0,0,1,2.5-3A2.79,2.79,0,0,1,25,21,2.79,2.79,0,0,1,22.5,24Z"/>
  <path d="M21.41,4.09a1,1,0,0,0-1.32.5l-10,22a1,1,0,0,0,.5,1.32A1,1,0,0,0,11,28a1,1,0,0,0,.91-.59l10-22A1,1,0,0,0,21.41,4.09Z" />
</svg>