<svg version="1.1" id="logo-desjardins-desktop" xmlns="http://www.w3.org/2000/svg" x="0" y="0" width="144" height="31" xml:space="preserve"><path fill="#00874e" id="logo_desjardins" d="M41.884 6.878h-5.895v17.121h5.995c5.396 0 8.893-3.384 8.893-8.561.1-5.076-3.597-8.56-8.993-8.56zm-.1 14.234h-2.198V9.864h2.397c3.199 0 5.396 2.388 5.396 5.673.101 3.286-2.196 5.575-5.595 5.575zM0 7.775v15.451L13.501 31l13.501-7.774V7.775L13.501 0 0 7.775zm23.302 2.094v11.263l-9.8 5.582-9.801-5.682V9.869l9.801-5.583 9.8 5.583zm96.42-1.498a1.79 1.79 0 0 1-1.8 1.792c-1 0-1.799-.796-1.799-1.792s.799-1.792 1.799-1.792c.898 0 1.8.896 1.8 1.792zm-.301 3.881h-3.099v11.747h3.099V12.252zm-48.66 4.581c-1.4-.499-1.7-.798-1.7-1.395 0-.497.4-.896 1.2-.896 1.198 0 1.998.697 2.796 1.394l1.7-1.892c-1.2-1.294-2.799-1.891-4.596-1.891-2.498 0-4.297 1.493-4.297 3.484 0 2.289 1.799 3.285 3.597 3.882.2.1.4.1.6.199 1 .298 1.599.497 1.599 1.095 0 .398-.201.896-1.499.896-1.2 0-2.299-.598-2.898-1.494l-1.798 1.892c1.298 1.493 2.797 2.091 4.796 2.091 2.796 0 4.597-1.393 4.597-3.583s-1.599-2.886-4.097-3.782zm69.141 0c-1.399-.499-1.697-.798-1.697-1.395 0-.497.399-.896 1.199-.896 1.2 0 1.998.697 2.799 1.394l1.698-1.892c-1.199-1.294-2.797-1.891-4.597-1.891-2.499 0-4.297 1.493-4.297 3.484 0 2.289 1.798 3.285 3.597 3.882.2.1.399.1.601.199.998.298 1.599.497 1.599 1.095 0 .398-.199.896-1.499.896-1.199 0-2.301-.598-2.898-1.494l-1.797 1.892c1.297 1.493 2.795 2.091 4.795 2.091 2.799 0 4.596-1.393 4.596-3.583s-1.599-2.886-4.099-3.782zM80.354 8.371c0 .995-.803 1.792-1.801 1.792a1.787 1.787 0 0 1-1.798-1.792c0-1.096.799-1.792 1.798-1.792.899 0 1.801.896 1.801 1.792zm-3.698 20.207c1.998 0 3.396-1.395 3.396-4.181V12.252h-3.099v12.045c0 1.095-.498 1.593-1.196 1.593-.4 0-.7-.1-1.1-.298l-.5 2.587c.901.3 1.4.399 2.499.399zM90.044 12.95c-.896-.597-1.896-.896-3.197-.896-1.899 0-3.495.697-4.495 1.892.199.199 1.599 1.692 1.8 1.892.498-.697.996-1.096 1.695-1.295.302-.099.501-.099.801-.099.398 0 .801.099 1.102.2.798.298 1.197.895 1.197 1.593v.796c-.099 0-1.099-.498-2.599-.498-2.497 0-4.396 1.593-4.396 3.783 0 2.09 1.599 3.683 3.895 3.683 1.401 0 2.2-.597 3.001-1.294h.099v1.096h2.898v-7.766c0-1.296-.601-2.291-1.801-3.087zm-1.196 7.167c0 .597-1.3 1.493-2.699 1.493-.901 0-1.601-.598-1.601-1.395 0-.497.3-1.493 1.8-1.493 1.2 0 2.4.399 2.4.399v.995h.1zm8.69-6.471l-.1-1.394H94.34v11.747h3.098v-5.276c0-2.09 1.1-3.583 3.698-3.583v-3.086c-1.6 0-2.797.497-3.598 1.592zm13.29 9.357l.1 1.097h2.898V6.878h-3.098v6.371h-.1c-.6-.796-1.998-1.195-3-1.195-3.795 0-5.696 3.086-5.696 6.072 0 2.19 1.002 3.684 1.702 4.48 1.099 1.094 2.497 1.592 3.994 1.592.702 0 1.801-.199 3.2-1.195zm-3-1.593c-1.696 0-2.995-1.492-2.995-3.284s1.398-3.285 2.995-3.285c1.802 0 3 1.692 3 3.285 0 1.891-1.399 3.284-3 3.284zm17.389-8.161l-.1-.996h-3.1V24h3.1v-6.072c0-2.688 1.698-3.085 2.696-3.085 1.698 0 2.397 1.493 2.397 2.788v6.37h3.099v-6.37c0-3.484-1.9-5.575-4.996-5.575-2.298-.002-3.096 1.193-3.096 1.193zm-60.951 4.777c0-3.484-2.398-5.973-5.795-5.973-3.396 0-5.794 2.488-5.794 6.072s2.498 6.072 6.094 6.072c2.098 0 3.898-.796 5.096-2.091-.2-.298-1.599-1.593-1.798-1.892-.6.697-1.699 1.395-2.897 1.395-1.6 0-2.699-.896-3.098-2.39h8.393v-1.194h-.201zm-8.493-1.094c.399-1.494 1.399-2.19 2.697-2.19 1.4 0 2.298.796 2.598 2.19h-5.295z"/></svg>