<svg version="1.1" id="logo-desjardins-blanc" xmlns="http://www.w3.org/2000/svg" x="0" y="0" width="144" height="31" xml:space="preserve"><path id="logo_desjardins" fill="#FFF" d="M41.871 6.8h-5.896V24h5.996c5.396 0 8.994-3.301 8.994-8.601-.1-5.099-3.698-8.599-9.094-8.599zm-.1 14.3h-2.198V9.8h2.398c3.198 0 5.396 2.399 5.396 5.8 0 3.2-2.298 5.5-5.596 5.5zM0 7.8v15.5L13.491 31l13.49-7.801V7.8L13.491 0 0 7.8zm23.184 2V21l-9.793 5.6L3.598 21V9.8l9.793-5.7 9.793 5.7zm96.533-1.5c0 1.1-.8 1.899-1.8 1.899-1.1 0-1.798-.8-1.798-1.899 0-1.101.8-1.8 1.798-1.8 1 .1 1.8.899 1.8 1.8zm-.401 3.899h-3.098V24h3.098V12.199zM70.651 16.6c-1.399-.5-1.799-.8-1.799-1.3 0-.601.5-.8 1.2-.8 1.198 0 1.999.699 2.797 1.399l1.898-2C73.549 12.6 71.95 12 70.151 12c-2.498 0-4.197 1.5-4.197 3.5 0 2.399 1.798 3.3 3.697 3.899.2.101.5.101.6.2 1.099.4 1.598.5 1.598 1.2 0 .399-.198.899-1.499.899-1.198 0-2.197-.6-2.997-1.5l-1.798 1.9c1.298 1.4 2.697 2.1 4.696 2.1 2.799 0 4.597-1.399 4.597-3.5-.101-2.299-1.6-2.999-4.197-4.098zm69.151 0c-1.398-.5-1.797-.8-1.797-1.3 0-.601.499-.8 1.197-.8 1.2 0 1.999.699 2.799 1.399l1.898-2C142.7 12.6 141.102 12 139.302 12c-2.498 0-4.196 1.5-4.196 3.5 0 2.399 1.799 3.3 3.697 3.899.201.101.499.101.601.2 1.1.4 1.599.5 1.599 1.2 0 .399-.2.899-1.499.899-1.199 0-2.199-.6-2.998-1.5l-1.799 1.9c1.3 1.4 2.698 2.1 4.697 2.1 2.797 0 4.597-1.399 4.597-3.5-.102-2.299-1.601-2.999-4.199-4.098zM80.344 8.3c0 1.1-.799 1.899-1.799 1.899-1.1 0-1.799-.8-1.799-1.899 0-1.101.801-1.8 1.799-1.8 1 .1 1.799.899 1.799 1.8zm-3.698 20.3c1.999 0 3.398-1.4 3.398-4.1V12.199h-3.099v12c0 1.101-.5 1.601-1.2 1.601-.399 0-.698-.101-1.099-.4l-.597 2.6c.898.399 1.598.6 2.597.6zm13.392-15.701c-.801-.6-1.899-.8-3.2-.8-1.897 0-3.497.7-4.496 2 .201.2 1.499 1.6 1.8 1.9.499-.7.899-1.101 1.598-1.301.201-.199.6-.199.801-.199.399 0 .799.1 1.1.199.698.4 1.197.9 1.197 1.601v.8c-.099 0-1.099-.5-2.597-.5-2.498 0-4.398 1.6-4.398 3.8s1.601 3.7 3.897 3.7c1.399 0 2.199-.6 2.999-1.3h.099v1.1h2.998v-7.7c-.1-1.399-.699-2.599-1.798-3.3zM88.837 20.1c0 .6-1.298 1.6-2.697 1.6-.899 0-1.499-.6-1.499-1.399 0-.5.2-1.4 1.799-1.4 1.2 0 2.397.4 2.397.4v.799zm8.595-6.5l-.1-1.4h-3.197V24h3.197v-5.301c0-2.1 1.1-3.5 3.798-3.5v-3.1c-1.699.001-2.9.401-3.698 1.501zm13.191 9.4l.1 1.1h2.997V6.8h-3.097v6.399h-.1c-.6-.699-1.999-1.199-3.098-1.199-3.797 0-5.796 3.1-5.796 6 0 2.199 1.099 3.699 1.8 4.5 1.1 1.1 2.497 1.6 3.996 1.6.899.099 1.999-.1 3.198-1.1zm-2.898-1.601c-1.799 0-2.998-1.5-2.998-3.3 0-1.9 1.399-3.3 2.998-3.3 1.8 0 3.098 1.8 3.098 3.3-.1 1.901-1.399 3.3-3.098 3.3zm17.387-8.2l-.099-.899h-3.099V24h3.099v-6c0-2.7 1.797-3.101 2.697-3.101 1.799 0 2.398 1.5 2.398 2.8V24h3.098v-6.301c0-3.5-1.899-5.699-5.097-5.699-2.096-.101-2.997 1.1-2.997 1.199zm-60.956 4.7c0-3.5-2.399-5.899-5.796-5.899-3.398 0-5.796 2.5-5.796 6s2.499 6 5.996 6c1.999 0 3.897-.801 5.097-2-.2-.2-1.599-1.801-1.799-2-.599.699-1.599 1.399-2.998 1.399-1.599 0-2.698-.899-3.098-2.399h8.395l-.001-1.101zm-8.395-1c.4-1.399 1.399-2.1 2.699-2.1 1.399 0 2.198.8 2.598 2.1h-5.297z"/></svg>